<?xml version="1.0" standalone="no"?>
<!DOCTYPE svg PUBLIC "-//W3C//DTD SVG 20010904//EN"
 "http://www.w3.org/TR/2001/REC-SVG-20010904/DTD/svg10.dtd">
<svg version="1.0" xmlns="http://www.w3.org/2000/svg"
 width="1259.000000pt" height="1280.000000pt" viewBox="0 0 1259.000000 1280.000000"
 preserveAspectRatio="xMidYMid meet">
<metadata>
Created by potrace 1.15, written by Peter Selinger 2001-2017
</metadata>
<g transform="translate(0.000000,1280.000000) scale(0.100000,-0.100000)"
fill="#000000" stroke="none">
<path d="M6262 12756 c-33 -61 -102 -137 -456 -501 -171 -176 -358 -376 -416
-443 -119 -141 -104 -139 -170 -21 -71 127 -225 250 -410 329 -41 17 -194 65
-339 106 -359 102 -479 149 -591 233 -30 23 -59 40 -64 38 -6 -2 -18 -44 -28
-93 -30 -152 -74 -253 -233 -533 -257 -454 -315 -669 -244 -915 11 -37 18 -70
16 -73 -3 -2 -78 1 -168 7 -92 6 -375 9 -644 8 -367 -2 -501 0 -568 11 -50 7
-92 9 -97 5 -4 -5 -1 -43 7 -84 10 -56 17 -229 24 -675 5 -330 13 -633 17
-672 4 -40 4 -73 0 -73 -4 0 -40 7 -80 16 -106 24 -322 24 -413 0 -91 -23
-255 -102 -430 -206 -237 -141 -429 -235 -532 -259 -50 -11 -99 -21 -109 -21
-47 -1 -47 -15 0 -84 93 -135 137 -251 236 -621 66 -249 88 -313 147 -430 76
-150 180 -264 310 -337 30 -17 53 -34 51 -38 -2 -3 -37 -35 -78 -70 -78 -66
-247 -233 -631 -626 -124 -126 -258 -254 -297 -283 -40 -30 -72 -55 -72 -56 0
-1 33 -24 73 -50 52 -34 184 -160 472 -449 220 -220 432 -428 472 -461 39 -33
72 -63 72 -66 1 -3 -26 -23 -60 -44 -125 -77 -235 -199 -312 -345 -61 -114
-95 -215 -161 -475 -83 -327 -119 -423 -207 -551 -30 -43 -48 -78 -43 -83 5
-5 38 -14 74 -20 154 -29 285 -88 580 -261 297 -174 404 -219 571 -239 89 -12
234 -1 316 24 l46 14 -8 -97 c-4 -53 -8 -356 -11 -672 -2 -353 -8 -607 -15
-658 -6 -46 -9 -85 -7 -87 2 -3 38 2 79 11 59 12 193 17 664 24 325 5 625 12
667 16 l78 7 -15 -49 c-8 -27 -19 -89 -25 -138 -25 -205 34 -424 187 -696 33
-58 92 -163 132 -234 90 -160 145 -294 167 -411 9 -49 21 -94 25 -99 5 -5 33
8 66 31 137 95 279 152 583 233 304 80 436 134 556 224 84 63 182 170 224 244
19 34 38 61 41 59 3 -1 40 -42 81 -92 123 -146 299 -330 463 -485 183 -171
324 -324 407 -437 33 -46 62 -83 63 -83 2 0 29 37 61 82 34 49 177 205 364
397 321 331 435 451 531 563 64 74 58 75 109 -16 69 -123 215 -248 384 -327
100 -46 212 -84 401 -133 291 -77 416 -125 548 -215 42 -28 80 -51 85 -51 5 0
14 31 20 68 26 158 93 311 265 611 125 217 179 335 213 469 22 85 25 112 21
222 -3 71 -12 150 -21 184 -9 32 -14 61 -12 64 3 2 66 -1 140 -8 87 -7 321
-10 658 -9 433 2 536 0 600 -13 43 -8 79 -14 81 -12 2 2 -3 39 -10 81 -10 57
-17 247 -23 693 -5 338 -12 644 -16 679 -6 59 -5 64 11 57 122 -46 327 -54
465 -16 151 41 215 72 525 255 251 148 411 217 535 231 33 4 62 10 65 14 2 3
-11 28 -30 54 -94 132 -153 283 -230 581 -80 313 -128 440 -215 571 -50 76
-199 220 -263 254 -26 14 -47 27 -47 30 0 3 57 57 127 120 69 63 194 185 277
270 412 423 518 527 594 585 l82 63 -67 48 c-38 27 -242 223 -468 449 -220
220 -435 429 -477 465 -42 35 -75 67 -72 71 2 4 28 21 57 37 79 45 153 109
219 191 103 128 154 250 243 591 82 313 143 469 234 605 47 70 43 79 -42 90
-131 18 -242 68 -549 247 -357 208 -496 261 -688 262 -79 1 -140 -5 -193 -17
-43 -10 -81 -17 -83 -14 -3 3 0 58 5 123 6 66 11 365 11 666 0 442 3 561 15
624 8 43 11 81 7 85 -4 4 -38 0 -77 -8 -54 -11 -203 -17 -670 -24 -330 -5
-630 -12 -667 -17 -38 -4 -68 -5 -68 -2 0 4 9 42 20 86 28 109 29 279 1 387
-31 119 -97 266 -219 484 -194 351 -243 460 -262 591 -5 37 -10 70 -10 75 0
15 -24 6 -69 -27 -98 -72 -300 -158 -496 -211 -408 -112 -495 -144 -623 -229
-89 -59 -200 -175 -247 -260 -20 -37 -41 -66 -45 -64 -5 2 -29 30 -55 63 -84
110 -266 303 -469 497 -225 217 -378 383 -439 476 -23 34 -46 62 -52 62 -5 0
-20 -20 -33 -44z m109 -108 c40 -51 186 -205 324 -343 469 -468 622 -639 750
-839 l37 -58 -41 7 c-60 10 -104 -9 -157 -68 -39 -43 -47 -49 -55 -35 -17 31
-182 239 -275 347 -211 246 -586 625 -655 661 -13 7 -80 -55 -326 -303 -302
-304 -403 -418 -553 -621 -59 -80 -75 -96 -84 -84 -59 79 -85 96 -148 99 -27
2 -48 7 -48 11 0 26 187 272 314 413 44 50 200 212 346 360 242 246 407 426
468 513 13 17 25 32 26 32 2 0 37 -42 77 -92z m-2346 -308 c88 -41 244 -94
429 -145 343 -94 459 -145 604 -264 47 -39 134 -148 177 -224 l27 -48 -27 -37
c-14 -20 -58 -83 -95 -139 -38 -56 -74 -104 -79 -107 -5 -4 -21 20 -36 51 -31
69 -57 98 -109 125 -51 26 -112 20 -168 -17 -23 -15 -43 -24 -45 -19 -14 42
-71 120 -105 144 -51 37 -127 41 -188 10 -48 -24 -50 -25 -50 -2 0 10 -7 42
-15 70 -31 102 -118 166 -218 161 l-52 -3 -107 264 c-60 146 -108 266 -108
268 0 1 24 -12 53 -29 28 -17 79 -43 112 -59z m4607 -162 c-54 -133 -102 -251
-105 -260 -5 -14 -18 -18 -64 -18 -69 0 -131 -28 -172 -77 -28 -34 -61 -117
-61 -154 0 -24 -2 -24 -42 1 -22 13 -51 20 -86 20 -92 0 -162 -51 -197 -144
l-17 -45 -37 29 c-100 81 -245 23 -291 -116 -6 -19 -15 -34 -18 -34 -4 0 -21
22 -39 48 -17 26 -61 91 -98 145 l-67 97 41 69 c87 147 170 227 311 300 98 51
204 88 447 155 295 82 449 141 558 215 16 11 31 18 33 16 2 -2 -41 -113 -96
-247z m-4691 -35 l102 -253 -42 -45 c-51 -55 -63 -84 -63 -155 -1 -56 26 -136
59 -172 14 -16 14 -18 -13 -28 -67 -25 -83 -33 -103 -53 -28 -30 -51 -89 -51
-130 0 -31 16 -93 35 -139 6 -15 2 -18 -22 -18 -16 0 -49 -10 -73 -22 -87 -44
-118 -163 -71 -272 l21 -48 -27 7 c-34 8 -293 55 -309 55 -32 0 -69 194 -61
316 12 175 70 330 233 615 140 247 208 385 227 459 9 36 22 85 28 109 6 24 14
40 19 35 5 -5 54 -123 111 -261z m4854 176 c44 -154 112 -301 235 -509 159
-271 227 -444 237 -608 6 -102 -7 -213 -33 -294 -14 -43 -19 -48 -52 -54 -20
-3 -97 -17 -170 -31 -73 -14 -136 -23 -138 -20 -3 3 1 18 9 34 8 15 20 53 26
83 24 120 -33 209 -145 226 l-41 6 18 49 c48 126 -9 265 -116 285 -19 3 -35
10 -35 14 0 5 14 31 30 57 61 97 47 217 -32 288 l-40 37 97 241 c54 133 101
253 106 266 5 13 12 22 14 19 3 -3 16 -43 30 -89z m-2515 -281 l0 -231 -122
-124 -123 -124 -7 33 c-4 18 -10 118 -14 221 l-7 189 134 134 c73 74 135 134
136 134 2 0 3 -104 3 -232z m179 98 l133 -135 -7 -113 c-4 -62 -11 -161 -14
-221 -3 -59 -8 -108 -11 -110 -3 -1 -59 54 -125 122 l-120 123 -3 234 c-2 130
0 234 5 234 5 0 69 -61 142 -134z m-485 -192 c3 -9 6 -55 6 -102 0 -48 5 -135
10 -194 7 -67 7 -115 1 -131 -6 -14 -35 -58 -66 -98 -31 -40 -75 -104 -98
-142 -38 -64 -42 -68 -49 -46 -4 13 -18 127 -32 253 l-25 229 94 96 c52 53
103 108 115 124 24 31 35 34 44 11z m782 -112 l118 -124 -17 -131 c-9 -73 -22
-187 -28 -254 -7 -68 -15 -123 -18 -123 -3 1 -30 43 -59 94 -30 51 -77 119
-104 152 l-51 59 7 145 c10 214 18 311 26 308 4 -2 61 -58 126 -126z m-2549
17 c75 -36 123 -115 123 -203 0 -23 -5 -36 -13 -36 -17 0 -91 47 -146 94 -51
43 -55 40 -65 -46 -9 -86 -28 -158 -41 -158 -18 0 -52 41 -74 90 -37 80 -22
171 37 234 49 51 108 60 179 25z m4343 -8 c14 -10 35 -35 48 -57 32 -55 29
-174 -7 -226 -29 -42 -60 -63 -72 -51 -5 5 -17 57 -27 116 -9 59 -21 107 -25
107 -4 0 -49 -29 -98 -65 -50 -36 -95 -62 -100 -59 -18 11 -9 90 17 142 29 58
70 95 124 111 45 13 108 5 140 -18z m-2270 -317 c0 -132 -4 -224 -9 -222 -24
9 -261 164 -261 171 0 5 44 54 98 110 54 56 111 116 127 133 17 18 33 32 38
33 4 0 7 -101 7 -225z m300 -50 c0 -9 -250 -174 -264 -174 -3 0 -6 102 -6 228
l0 227 135 -136 c74 -74 135 -140 135 -145z m-2361 156 c86 -58 191 -105 527
-230 499 -187 697 -283 880 -428 l51 -40 -20 -96 c-11 -53 -25 -96 -30 -96 -5
0 -30 17 -56 38 -205 170 -515 332 -841 441 -223 75 -412 131 -440 131 -16 0
-138 -195 -203 -325 -158 -319 -288 -713 -318 -966 -7 -57 -15 -107 -18 -111
-3 -3 -43 18 -89 48 l-83 54 7 38 c19 110 93 376 145 525 33 96 109 275 173
411 127 270 176 393 215 544 14 56 29 102 34 102 4 0 34 -18 66 -40z m1506
-236 l28 -261 -23 -57 c-12 -31 -26 -59 -30 -61 -5 -3 -13 18 -20 47 -20 98
-76 164 -152 183 -30 8 -32 12 -48 100 -10 58 -9 61 17 97 82 110 186 229 193
222 4 -5 20 -127 35 -270z m1282 158 c32 -41 71 -90 86 -108 l29 -33 -13 -76
-12 -77 -52 -23 c-78 -34 -114 -81 -131 -170 -10 -54 -22 -52 -50 9 l-25 56
26 237 c14 131 28 253 31 272 l5 33 25 -23 c13 -12 50 -56 81 -97z m1448 91
c34 -167 70 -263 216 -580 120 -259 174 -391 224 -544 42 -130 100 -351 110
-421 l7 -46 -83 -56 c-46 -30 -84 -54 -86 -52 -2 2 -14 72 -28 157 -38 243
-93 429 -200 675 -103 236 -284 574 -309 574 -26 0 -268 -63 -371 -96 -316
-103 -656 -278 -901 -463 -37 -28 -70 -51 -73 -51 -7 0 -41 155 -41 184 0 23
211 160 378 245 153 77 297 137 585 242 290 105 447 177 532 243 28 22 34 20
40 -11z m-3899 1 c47 -23 101 -86 114 -134 6 -23 10 -44 7 -46 -5 -6 -91 25
-214 76 -93 39 -101 44 -92 62 28 52 119 73 185 42z m3612 2 c15 -8 36 -24 47
-36 16 -18 17 -23 5 -30 -27 -17 -300 -124 -304 -119 -12 12 20 92 50 127 57
67 139 91 202 58z m-3257 -132 c40 -20 87 -79 99 -125 6 -22 10 -44 8 -48 -5
-14 -298 100 -298 116 0 20 48 62 84 72 34 10 68 5 107 -15z m2916 -4 c28 -17
60 -57 51 -65 -14 -12 -304 -111 -306 -104 -6 16 20 83 45 117 53 71 143 93
210 52z m-3780 -78 c-5 -26 -110 -268 -121 -279 -9 -10 -28 10 -42 43 -20 48
-18 142 5 184 25 48 75 80 124 80 38 0 39 -1 34 -28z m4603 5 c77 -51 99 -167
50 -255 -13 -23 -27 -39 -31 -35 -10 11 -129 289 -129 302 0 20 76 12 110 -12z
m-2572 -53 c213 -138 197 -124 200 -176 3 -40 -5 -61 -53 -155 -31 -59 -61
-112 -65 -117 -5 -5 -82 37 -182 99 -95 59 -175 109 -177 111 -13 12 162 294
182 294 5 0 48 -25 95 -56z m625 -75 c48 -73 87 -139 87 -148 0 -10 -64 -56
-165 -119 -90 -56 -170 -104 -177 -107 -8 -3 -35 37 -76 115 -80 152 -81 176
-7 233 68 52 227 157 241 157 6 0 50 -59 97 -131z m-1475 62 c47 -24 77 -56
97 -103 14 -35 20 -78 11 -78 -15 0 -261 120 -264 129 -6 17 18 42 53 57 41
18 60 17 103 -5z m2229 8 c28 -10 73 -47 73 -59 0 -10 -270 -133 -277 -126
-11 10 18 89 44 125 23 30 91 70 120 71 6 0 24 -5 40 -11z m-2003 -40 c14 -69
8 -93 -29 -116 -45 -29 -52 -29 -58 5 -4 20 4 42 31 84 20 32 40 58 43 58 4 0
9 -14 13 -31z m1741 -33 c28 -41 35 -59 29 -80 -3 -14 -9 -26 -13 -26 -18 0
-81 53 -81 68 0 37 13 92 21 92 5 0 25 -24 44 -54z m-2753 -31 c377 -108 612
-202 812 -324 121 -75 330 -218 350 -240 18 -20 20 -38 20 -216 1 -118 -3
-195 -9 -195 -24 0 -195 76 -195 86 0 7 6 41 14 76 8 35 16 81 18 103 2 39 1
40 -27 38 -17 -1 -69 -22 -118 -48 -48 -25 -89 -45 -91 -45 -2 0 -6 38 -10 84
-13 173 -85 426 -121 426 -21 0 -150 -147 -191 -217 -20 -35 -40 -63 -44 -63
-3 0 -22 21 -40 48 -46 64 -163 185 -230 237 -30 23 -92 64 -138 90 -97 57
-92 59 -121 -65 -40 -170 -50 -339 -27 -468 l13 -74 -31 5 c-17 2 -85 12 -151
22 -74 12 -135 16 -158 11 -36 -7 -38 -9 -32 -34 18 -77 139 -280 220 -370 25
-28 45 -54 45 -58 0 -5 -47 -24 -104 -42 -103 -33 -126 -46 -126 -68 0 -6 41
-37 90 -69 98 -61 97 -61 64 -127 -8 -14 -23 -51 -35 -82 -11 -31 -24 -56 -29
-56 -4 0 -29 26 -55 58 -26 31 -88 96 -138 143 l-91 87 28 153 c36 195 82 363
147 537 89 241 320 692 354 692 7 0 69 -16 137 -35z m3906 -45 c87 -152 260
-510 304 -631 26 -68 62 -188 82 -267 34 -134 76 -353 76 -392 0 -15 -278
-307 -284 -298 -2 2 -57 134 -81 193 -3 6 36 37 86 70 56 37 88 66 87 75 -4
21 -76 55 -159 77 -38 9 -69 20 -69 23 0 3 37 50 81 105 77 96 189 296 189
339 0 14 -14 16 -102 16 -62 0 -136 -8 -186 -19 l-82 -18 7 66 c13 105 9 340
-6 401 -21 89 -51 190 -57 190 -14 0 -107 -54 -169 -98 -103 -73 -201 -167
-265 -254 l-56 -76 -58 88 c-32 48 -87 116 -121 150 l-63 63 -15 -29 c-44 -85
-89 -269 -102 -421 -4 -40 -9 -73 -11 -73 -2 0 -43 20 -91 45 -49 25 -100 48
-115 51 -27 6 -28 5 -28 -32 0 -22 7 -66 15 -99 25 -102 27 -98 -84 -143 -55
-22 -101 -39 -103 -37 -2 2 0 48 3 102 3 54 2 139 -2 188 -5 67 -4 95 6 111
20 31 246 188 389 270 132 75 342 169 506 225 136 46 392 118 415 116 13 -1
34 -27 63 -77z m-2811 -21 c38 -14 71 -46 94 -91 23 -45 36 -118 21 -118 -15
0 -252 151 -252 160 0 5 14 20 31 34 33 28 62 32 106 15z m1633 -24 c15 -16
21 -28 15 -34 -19 -19 -244 -159 -248 -155 -2 2 0 27 4 56 21 132 153 209 229
133z m-3272 -79 c3 -4 -111 -274 -125 -295 -7 -11 -41 34 -51 68 -29 94 -1
186 68 223 32 17 92 20 108 4z m2064 -102 c58 -38 120 -77 137 -86 17 -9 31
-24 31 -32 0 -8 -15 -52 -33 -98 -19 -46 -44 -113 -56 -151 -15 -45 -27 -65
-34 -60 -7 4 -61 39 -122 78 -60 40 -132 84 -159 100 -46 27 -48 29 -42 65 8
53 51 197 75 253 l21 48 37 -24 c21 -14 86 -55 145 -93z m884 34 c45 -119 75
-241 61 -255 -7 -6 -83 -57 -170 -112 -152 -97 -158 -100 -167 -78 -15 34
-110 295 -110 300 0 5 59 44 249 164 46 29 90 53 97 53 7 0 25 -33 40 -72z
m1979 50 c57 -45 73 -154 34 -235 -11 -24 -24 -43 -29 -43 -7 0 -140 280 -140
294 0 3 24 6 54 6 40 0 60 -6 81 -22z m-4352 -22 c116 -77 275 -244 368 -385
48 -73 76 -137 66 -148 -9 -8 -155 44 -237 85 -80 40 -106 68 -136 150 -10 26
-44 109 -76 184 -32 75 -58 139 -58 142 0 14 25 4 73 -28z m3636 -177 c-45
-107 -89 -202 -98 -213 -33 -38 -310 -160 -327 -143 -9 9 38 103 93 186 31 46
95 122 143 170 88 87 262 220 267 204 2 -5 -33 -97 -78 -204z m140 134 c23
-119 33 -302 21 -397 -16 -134 -62 -306 -81 -306 -25 0 -144 308 -133 344 17
61 168 425 174 421 4 -3 12 -30 19 -62z m-3791 -155 c76 -191 80 -206 72 -248
-17 -88 -109 -300 -130 -300 -12 0 -45 107 -65 211 -17 89 -20 279 -6 376 15
103 32 174 40 168 5 -2 45 -96 89 -207z m1816 -1387 c-10 -9 -82 78 -125 150
-52 87 -105 237 -125 352 -20 115 -14 384 11 496 41 185 113 376 198 531 l42
75 3 -799 c1 -440 -1 -802 -4 -805z m121 1459 c74 -148 136 -319 167 -464 17
-81 22 -135 22 -271 0 -179 -15 -269 -65 -405 -46 -124 -141 -276 -191 -309
-17 -11 -18 29 -18 790 0 548 3 798 10 794 6 -4 40 -64 75 -135z m-1287 -27
c47 -149 92 -463 65 -463 -5 0 -36 9 -69 19 -32 11 -78 25 -102 31 -42 11 -45
14 -89 105 l-45 94 26 45 c31 53 174 236 185 236 4 0 17 -30 29 -67z m2552
-115 c33 -47 60 -91 60 -96 0 -16 -80 -181 -91 -187 -25 -16 -205 -62 -213
-55 -22 21 39 381 84 495 l12 30 44 -50 c25 -27 72 -89 104 -137z m3038 40
c-6 -25 -11 -275 -13 -583 -2 -559 -17 -835 -61 -1118 l-6 -38 -43 39 c-47 45
-87 57 -150 48 -24 -4 -45 -3 -48 1 -3 4 3 55 14 113 10 58 23 179 29 270 13
176 17 971 6 1006 -6 20 -16 21 -209 28 -334 10 -933 -14 -1069 -43 -24 -5
-58 -11 -76 -13 l-33 -3 -2 77 c-2 70 -5 79 -34 116 -18 23 -33 43 -33 45 0 5
91 24 180 37 145 21 389 31 923 40 309 4 576 13 592 18 17 5 33 8 36 6 4 -2 2
-23 -3 -46z m-8183 26 c309 -1 611 -7 690 -13 129 -11 426 -49 433 -56 2 -2
-14 -21 -37 -44 -45 -45 -57 -86 -47 -158 l6 -46 -48 7 c-250 35 -460 46 -929
46 -311 0 -404 -3 -410 -12 -13 -21 -16 -695 -4 -923 10 -188 19 -272 47 -443
l7 -44 -47 7 c-67 10 -112 -2 -157 -42 -21 -19 -39 -31 -39 -27 0 5 -6 50 -14
99 -8 50 -19 142 -26 205 -6 63 -13 131 -16 150 -3 19 -10 303 -14 630 -5 327
-13 615 -18 639 l-10 43 42 -8 c22 -4 289 -9 591 -10z m1228 -102 c8 -11 -97
-292 -107 -289 -17 6 -46 72 -52 120 -13 93 45 176 123 177 17 0 34 -3 36 -8z
m5213 -17 c38 -25 57 -80 51 -146 -5 -60 -30 -119 -50 -119 -11 0 -107 250
-107 279 0 18 71 9 106 -14z m-3037 -151 c88 -57 92 -60 86 -89 -21 -98 -35
-209 -35 -267 0 -38 -3 -68 -7 -67 -5 0 -75 46 -158 102 l-150 102 1 150 c1
83 4 167 8 188 l7 37 77 -48 c43 -27 120 -75 171 -108z m1017 -40 c6 -158 5
-170 -12 -186 -53 -46 -295 -197 -298 -186 -3 7 -7 63 -10 123 -3 61 -12 135
-20 165 -19 69 -27 60 169 184 109 68 152 91 157 81 4 -7 11 -89 14 -181z
m-2264 31 c93 -46 231 -92 532 -180 287 -83 490 -170 668 -287 51 -33 95 -62
96 -63 8 -7 19 -75 13 -79 -3 -2 -33 -10 -66 -17 l-60 -12 -70 45 c-228 146
-379 205 -865 334 l-245 66 -20 -27 c-29 -37 -205 -347 -286 -500 -107 -205
-219 -508 -219 -595 0 -27 -27 -57 -89 -100 l-34 -23 -18 24 c-23 30 -24 67
-3 167 39 192 122 389 321 763 144 273 193 376 220 467 10 34 21 62 25 62 4 0
49 -20 100 -45z m3377 -34 c26 -91 93 -233 178 -381 139 -241 275 -534 317
-685 51 -179 65 -259 51 -293 -7 -16 -17 -32 -23 -36 -5 -3 -33 11 -62 32
l-53 37 -28 110 c-31 126 -73 248 -129 376 -50 112 -358 661 -378 672 -18 10
-421 -97 -637 -169 -214 -71 -407 -162 -512 -242 -27 -20 -40 -23 -70 -18 -96
17 -93 15 -93 51 0 27 9 41 45 73 48 42 260 155 415 220 84 35 535 178 694
220 32 8 100 37 150 63 50 26 96 47 102 48 5 1 20 -34 33 -78z m-5295 -146
c80 -90 146 -167 146 -170 0 -3 -77 -5 -172 -5 l-172 0 -163 162 c-90 89 -163
166 -163 170 0 4 85 8 189 8 l189 0 146 -165z m256 155 c10 -5 43 -45 73 -87
30 -43 96 -127 146 -188 51 -60 87 -111 82 -113 -6 -2 -51 6 -100 17 -49 12
-117 24 -152 27 -35 3 -74 7 -86 10 -17 3 -248 252 -302 325 -13 18 -8 19 153
19 92 0 176 -4 186 -10z m235 -11 c77 -6 146 -16 154 -22 7 -6 30 -36 51 -67
l37 -55 -19 -37 c-36 -69 -35 -108 6 -194 20 -42 36 -78 36 -81 0 -6 -38 6
-88 30 -34 16 -61 44 -127 131 -45 61 -117 154 -159 206 -42 52 -76 99 -76
104 0 4 10 6 23 3 12 -4 85 -11 162 -18z m2162 -74 c-8 -42 -18 -79 -21 -82
-11 -11 -171 42 -174 57 -5 26 197 133 206 110 2 -5 -3 -43 -11 -85z m1856 54
c101 -50 121 -64 114 -82 -4 -11 -136 -57 -165 -57 -5 0 -15 28 -21 63 -6 34
-14 74 -17 90 -3 15 -3 27 0 27 4 0 43 -18 89 -41z m2267 31 c0 -5 -52 -76
-116 -157 -64 -81 -135 -172 -158 -201 -22 -30 -59 -64 -81 -77 -43 -24 -99
-41 -93 -28 1 5 16 34 32 66 40 80 45 142 16 200 l-23 46 38 53 c21 29 42 57
47 63 7 8 141 26 326 44 6 0 12 -3 12 -9z m400 4 c0 -3 -35 -43 -77 -88 -42
-44 -103 -115 -136 -156 -32 -41 -62 -78 -66 -82 -3 -4 -46 -12 -96 -17 -49
-6 -129 -21 -177 -33 -48 -12 -90 -19 -94 -15 -3 3 45 70 108 149 63 79 127
161 143 183 48 66 43 65 227 65 92 0 168 -3 168 -6z m430 -1 c0 -10 -292 -306
-315 -320 -22 -13 -345 -17 -345 -5 0 4 43 57 96 117 53 61 117 134 142 163
l46 52 188 0 c103 0 188 -3 188 -7z m-7987 -199 l157 -161 0 -177 c0 -97 -3
-176 -7 -176 -3 0 -39 30 -78 68 -39 37 -112 104 -163 150 l-92 83 0 190 c0
148 3 190 13 187 6 -2 83 -76 170 -164z m1160 151 c44 -8 87 -53 64 -67 -8 -4
-32 -10 -53 -14 -38 -6 -41 -4 -67 35 -33 50 -34 65 -4 58 12 -3 39 -9 60 -12z
m5617 9 c0 -3 -14 -26 -31 -51 -31 -44 -33 -45 -72 -39 -64 11 -72 18 -48 47
12 16 37 28 73 35 65 14 78 16 78 8z m1250 -183 l0 -188 -162 -152 c-89 -83
-165 -148 -169 -143 -4 4 -5 86 -2 182 l6 175 155 158 c86 86 160 157 164 157
4 0 8 -85 8 -189z m-6230 153 c149 -25 139 -17 178 -126 l34 -97 -52 -98 c-29
-54 -54 -100 -56 -102 -24 -27 -304 378 -304 438 0 11 78 5 200 -15z m4440 16
c13 -8 11 -18 -15 -67 -64 -124 -241 -368 -267 -368 -6 0 -34 44 -64 97 l-54
98 21 57 c55 157 44 141 104 153 30 6 98 17 152 25 54 7 100 13 103 14 3 0 12
-4 20 -9z m-4990 -110 c0 -17 -61 -284 -66 -289 -2 -2 -11 4 -19 15 -73 92
-75 216 -5 271 18 15 90 17 90 3z m5441 0 c67 -36 70 -208 4 -270 -19 -18 -26
-20 -29 -9 -5 15 -66 277 -66 285 0 8 72 4 91 -6z m-4236 -84 c422 -103 842
-262 980 -370 l20 -16 -20 -12 c-53 -30 -113 -104 -131 -160 -10 -32 -21 -58
-24 -58 -4 0 -21 18 -38 39 -20 25 -57 52 -99 73 -59 29 -77 33 -143 33 -153
-1 -264 -84 -320 -239 -10 -27 -11 -28 -35 -12 -27 18 -24 20 -40 -29 -4 -14
-9 -13 -42 3 -127 65 -272 40 -379 -64 -68 -66 -99 -140 -97 -236 l0 -77 -51
27 c-44 24 -63 27 -142 27 l-91 0 9 40 c28 129 107 344 177 483 39 78 261 471
307 544 17 27 30 38 42 34 9 -3 62 -16 117 -30z m3190 -153 c237 -409 370
-704 398 -883 l5 -35 -92 0 c-81 0 -96 -3 -140 -27 -27 -16 -49 -28 -50 -28
-1 0 -2 39 -2 88 1 78 -2 92 -29 141 -34 61 -95 119 -163 153 -39 19 -62 23
-142 23 -79 0 -102 -4 -137 -23 l-43 -22 -6 25 c-6 26 -19 31 -43 16 -11 -7
-23 8 -53 70 -44 89 -94 135 -183 164 -138 46 -246 23 -342 -72 -30 -30 -56
-53 -57 -51 -1 1 -8 21 -14 44 -16 54 -59 117 -102 149 -19 14 -35 31 -35 38
0 6 43 36 95 65 190 108 389 185 680 262 85 23 191 52 235 65 44 12 87 23 96
24 10 1 53 -65 124 -186z m-2210 76 c73 -49 141 -99 151 -110 37 -40 2 -29
-98 33 -57 36 -123 76 -148 89 -34 18 -46 31 -48 52 -2 15 0 27 3 27 4 0 67
-41 140 -91z m1127 62 c-3 -25 -15 -35 -76 -67 -39 -20 -106 -59 -149 -87 -75
-48 -105 -56 -76 -21 14 17 289 204 300 204 3 0 4 -13 1 -29z m-3962 -114 c0
-20 -60 -290 -66 -296 -6 -6 -161 147 -246 242 l-60 67 186 0 c146 0 186 -3
186 -13z m7030 6 c0 -9 -302 -313 -311 -313 -4 0 -10 19 -13 43 -4 24 -18 92
-31 152 -14 59 -22 112 -19 116 6 11 374 12 374 2z m-6835 -29 c66 -14 130
-28 143 -31 13 -3 26 -11 29 -19 5 -13 -76 -394 -87 -407 -10 -12 -242 63
-278 90 -32 24 -33 28 -29 77 3 41 47 254 62 304 6 17 23 15 160 -14z m6431
-29 c7 -27 24 -103 39 -168 30 -133 27 -150 -38 -183 -28 -15 -249 -85 -253
-81 -4 4 -94 393 -94 404 0 15 80 41 198 63 133 25 135 25 148 -35z m-6872
-123 c80 -85 146 -158 146 -162 0 -5 -19 -11 -42 -15 -24 -4 -90 -18 -146 -31
-57 -13 -108 -24 -113 -24 -5 0 -9 85 -9 196 0 108 4 194 9 192 5 -1 74 -72
155 -156z m7312 -39 c-4 -103 -8 -188 -10 -190 -3 -4 -289 56 -294 62 -6 6
291 314 302 315 5 0 6 -77 2 -187z m-7736 32 c30 -31 94 -90 141 -130 l86 -74
12 -103 c7 -57 21 -138 33 -181 11 -43 18 -80 15 -83 -3 -3 -83 58 -178 136
-95 78 -178 144 -185 147 -25 9 -34 69 -34 225 l0 159 28 -20 c15 -10 52 -45
82 -76z m1217 40 c59 -30 121 -65 137 -78 l28 -23 -35 -154 c-20 -85 -39 -172
-43 -193 -3 -20 -9 -39 -13 -41 -10 -6 -295 131 -299 144 -2 6 15 99 38 206
37 165 46 194 61 194 10 0 67 -25 126 -55z m5742 -132 c24 -104 45 -195 47
-203 3 -11 -38 -35 -149 -86 -130 -61 -153 -69 -159 -55 -7 14 -88 361 -88
374 0 18 256 156 291 157 12 0 25 -40 58 -187z m1134 -167 c-10 -17 -384 -319
-389 -314 -1 2 8 51 21 108 14 58 27 138 31 179 l7 74 61 57 c34 31 108 100
166 153 l105 97 3 -171 c1 -93 -1 -176 -5 -183z m-6148 294 c3 -5 -13 -45 -35
-90 l-40 -80 -43 27 c-75 47 -108 76 -99 85 12 12 172 68 194 68 9 0 19 -4 23
-10z m4212 -15 c43 -13 87 -31 98 -39 18 -13 17 -15 -29 -47 -26 -19 -60 -42
-75 -51 l-27 -18 -43 80 c-58 110 -52 116 76 75z m-2453 -126 c17 -104 109
-283 207 -400 22 -26 39 -51 39 -56 0 -13 -90 -98 -195 -184 -49 -41 -119
-104 -154 -141 -35 -38 -69 -68 -76 -68 -8 0 -23 30 -36 68 -29 90 -60 141
-118 195 -64 60 -124 89 -273 133 -210 61 -306 95 -319 110 -33 40 77 187 173
232 58 27 153 29 221 6 82 -28 161 -113 181 -196 3 -16 13 -28 21 -28 12 0 15
15 15 73 0 54 6 84 24 122 44 95 155 170 257 174 23 1 27 -4 33 -40z m725 10
c70 -30 105 -62 141 -130 28 -53 33 -74 34 -133 1 -87 21 -96 44 -21 22 67 99
145 166 168 27 9 77 17 110 17 113 0 230 -77 276 -183 12 -27 19 -55 16 -63
-8 -21 -56 -39 -250 -95 -195 -57 -273 -91 -339 -150 -57 -49 -92 -108 -128
-208 l-26 -75 -69 73 c-38 40 -109 105 -159 143 -96 76 -205 177 -205 191 0 5
20 32 43 60 92 109 165 242 193 349 9 35 18 69 20 76 5 16 73 6 133 -19z
m-2871 -113 l127 -124 -13 -58 c-7 -33 -22 -106 -32 -164 -32 -171 -21 -161
-96 -91 -36 34 -100 86 -144 116 -56 40 -77 60 -74 73 2 9 20 89 39 177 43
193 44 195 56 195 5 0 67 -56 137 -124z m5027 107 c3 -10 22 -88 41 -173 18
-85 36 -165 39 -176 4 -18 -10 -33 -79 -83 -47 -34 -110 -84 -141 -112 -30
-29 -58 -50 -60 -47 -3 2 -21 85 -41 183 l-37 179 127 123 c70 68 131 123 136
123 4 0 11 -8 15 -17z m955 -118 c63 -14 131 -30 151 -36 l36 -9 -14 -88 c-14
-87 -49 -242 -57 -250 -4 -3 -361 79 -402 93 -7 2 2 47 25 130 33 113 41 131
74 162 24 21 44 32 55 29 9 -3 69 -17 132 -31z m-6892 0 c23 -29 32 -51 70
-180 17 -55 27 -103 23 -107 -11 -12 -395 -98 -403 -90 -23 23 -78 316 -62
331 5 5 63 21 129 36 66 14 121 28 124 31 2 2 26 4 52 4 39 0 51 -5 67 -25z
m517 -215 c220 -110 417 -266 513 -407 106 -157 191 -387 192 -521 l0 -44 -32
27 c-49 41 -1078 1088 -1078 1096 0 17 272 -85 405 -151z m6014 93 c-35 -38
-288 -295 -562 -573 l-499 -505 6 75 c13 170 112 408 230 555 152 188 410 353
734 466 75 26 141 48 146 48 5 1 -20 -29 -55 -66z m56 -89 c-151 -497 -440
-846 -805 -971 -92 -31 -252 -59 -272 -47 -5 3 125 142 289 308 164 165 415
421 557 568 143 147 261 266 263 264 2 -2 -13 -57 -32 -122z m-7130 -44 c72
-59 148 -120 169 -136 25 -18 48 -48 63 -82 36 -83 32 -87 -44 -46 -61 32 -74
36 -123 31 -30 -3 -69 -13 -86 -23 l-31 -18 -50 37 c-28 20 -56 44 -63 52 -13
15 -39 215 -40 304 l0 43 38 -28 c20 -15 96 -76 167 -134z m1577 -806 c81 -83
148 -156 148 -162 0 -12 -37 -9 -149 15 -143 29 -351 128 -460 217 -112 92
-274 322 -358 508 -56 123 -133 338 -133 372 0 17 243 -226 952 -950z m6415
934 c-4 -18 -11 -89 -17 -158 -6 -69 -13 -132 -16 -141 -2 -8 -31 -34 -65 -58
l-61 -43 -51 22 c-67 29 -132 22 -200 -20 -27 -17 -52 -28 -55 -26 -2 3 5 32
17 65 22 57 28 63 184 187 89 71 181 146 205 167 54 46 66 47 59 5z m-6357
-65 c0 -13 -13 -67 -29 -121 -16 -53 -32 -117 -36 -142 -10 -65 -15 -81 -26
-75 -5 4 -9 17 -9 31 0 28 59 334 67 347 9 14 33 -15 33 -40z m4550 35 c0 -2
13 -70 30 -153 30 -154 37 -225 21 -225 -5 0 -12 19 -16 43 -4 23 -23 98 -42
167 -34 125 -36 170 -8 170 8 0 15 -1 15 -2z m-3676 -86 c30 -14 46 -27 46
-39 0 -25 -56 -140 -123 -255 -138 -234 -160 -382 -83 -545 20 -41 36 -79 36
-84 0 -5 -46 -9 -102 -9 -57 -1 -175 -9 -262 -19 -196 -21 -214 -19 -220 23
-2 17 -10 69 -16 116 -14 105 -59 244 -107 329 l-36 64 24 20 c123 101 313 91
409 -22 53 -62 71 -47 35 30 -57 123 -15 278 96 355 95 65 206 79 303 36z
m3007 0 c157 -77 216 -222 157 -389 -12 -35 -19 -66 -15 -69 4 -4 32 16 62 45
70 66 112 84 196 84 69 0 147 -28 198 -70 l25 -20 -41 -79 c-66 -128 -113
-299 -113 -409 0 -52 -1 -53 -32 -59 -18 -3 -107 3 -198 14 -91 11 -209 20
-262 20 -63 0 -98 4 -98 11 0 6 12 30 26 55 60 102 70 237 28 362 -14 42 -63
147 -109 232 -106 197 -119 225 -112 243 3 8 30 25 59 36 69 27 164 25 229 -7z
m-2604 -108 c187 -54 263 -88 330 -149 56 -50 114 -151 133 -233 7 -28 19 -56
26 -60 12 -7 13 -14 3 -38 -6 -16 -11 -68 -11 -116 l0 -87 -68 6 c-58 5 -73 3
-109 -17 -40 -23 -78 -68 -102 -123 -12 -26 -17 -28 -48 -23 -19 3 -43 13 -53
23 -14 14 -346 817 -373 903 -6 20 -3 19 54 -10 34 -16 132 -51 218 -76z
m2195 -10 c-21 -49 -99 -239 -172 -423 -74 -183 -143 -347 -154 -364 -12 -17
-37 -36 -58 -43 l-36 -12 -29 56 c-15 31 -45 70 -66 87 -37 28 -44 30 -124 30
l-85 -1 6 48 c4 26 2 77 -5 112 -9 56 -9 68 5 88 9 12 16 31 16 41 0 10 14 52
31 93 63 151 159 220 404 290 137 38 246 78 280 101 33 23 30 -5 -13 -103z
m-2361 -254 c72 -179 150 -368 172 -420 47 -111 55 -165 33 -208 l-16 -30 -50
19 c-28 10 -67 19 -87 19 -51 0 -119 -35 -150 -79 -15 -20 -30 -40 -34 -45 -4
-5 -30 16 -58 46 -27 29 -65 63 -85 73 -22 12 -36 27 -36 39 0 11 -11 38 -24
61 -62 106 -87 264 -57 360 7 22 57 126 111 230 54 105 103 208 110 230 17 54
21 60 31 43 4 -7 67 -160 140 -338z m2467 283 c13 -38 59 -133 101 -213 94
-174 121 -244 128 -331 7 -79 -13 -155 -63 -248 -19 -35 -33 -69 -30 -76 2 -7
-17 -27 -44 -44 -27 -18 -67 -53 -89 -79 -22 -25 -42 -44 -44 -42 -55 73 -76
94 -108 110 -46 24 -101 25 -159 5 -23 -8 -46 -15 -51 -15 -17 0 -41 63 -36
94 3 17 39 114 82 216 42 102 122 299 178 437 56 139 104 253 107 253 3 0 16
-30 28 -67z m-4493 -148 c36 -82 65 -153 65 -157 0 -5 -7 -8 -16 -8 -9 0 -88
-18 -176 -40 -89 -22 -169 -40 -179 -40 -20 0 -78 93 -129 203 -51 111 -59 99
97 137 76 18 161 38 188 45 28 8 58 13 68 12 12 -1 36 -44 82 -152z m6594 114
c97 -23 186 -44 199 -46 12 -3 22 -11 22 -18 0 -18 -114 -243 -139 -275 l-19
-24 -174 42 c-95 23 -181 42 -191 42 -9 0 -17 5 -17 11 0 14 133 309 139 309
2 0 83 -19 180 -41z m-7878 -27 l65 -22 27 -157 c15 -87 30 -168 33 -181 l6
-22 -53 25 c-133 61 -275 4 -287 -115 -2 -27 -8 -50 -12 -50 -4 0 -25 7 -45
16 -54 22 -145 20 -193 -5 -43 -22 -78 -70 -88 -120 -4 -17 -10 -31 -15 -31
-4 0 -30 14 -57 31 -98 61 -217 48 -285 -32 l-34 -39 -261 107 c-144 60 -258
111 -254 114 4 3 39 14 77 24 136 36 240 85 497 237 219 128 371 202 473 227
109 28 308 24 406 -7z m9215 17 c181 -25 311 -79 575 -237 253 -153 369 -207
501 -238 37 -9 70 -19 72 -22 2 -4 -111 -56 -252 -114 l-257 -107 -40 38 c-86
83 -160 93 -271 37 -37 -19 -71 -33 -75 -30 -4 2 -10 19 -13 38 -17 92 -130
149 -240 121 -28 -8 -58 -16 -67 -20 -12 -4 -18 6 -27 46 -16 69 -43 104 -97
125 -54 20 -144 15 -195 -11 l-33 -17 6 28 c3 16 16 94 28 173 27 164 26 163
130 186 79 17 155 18 255 4z m-4776 -626 l0 -628 -27 40 c-133 200 -287 290
-605 356 -74 15 -108 27 -108 36 0 25 28 69 64 101 43 38 95 49 153 34 82 -22
81 -25 75 86 -5 118 12 189 61 254 18 23 100 100 182 169 83 70 159 139 169
153 11 14 24 26 28 26 4 0 8 -282 8 -627z m95 576 c28 -28 101 -94 163 -146
145 -122 159 -137 190 -202 30 -65 40 -142 30 -231 -4 -35 -4 -68 0 -72 5 -5
28 -2 51 7 59 20 97 19 148 -6 42 -20 93 -86 93 -120 0 -10 -31 -21 -108 -36
-290 -60 -481 -167 -582 -326 -19 -31 -38 -56 -42 -57 -5 0 -8 279 -8 620 0
341 4 620 8 620 4 0 30 -23 57 -51z m-4086 -91 c42 -31 43 -32 36 -77 -8 -59
-16 -66 -45 -43 -16 13 -26 37 -35 85 -7 37 -9 67 -6 67 4 0 26 -14 50 -32z
m8067 5 c-3 -16 -8 -45 -12 -66 -4 -23 -16 -45 -32 -58 -30 -23 -36 -17 -46
46 -7 39 -5 42 36 72 54 39 61 40 54 6z m-7778 -32 c37 -19 69 -48 61 -55 -2
-3 -56 -16 -119 -31 -190 -43 -170 -42 -170 -6 0 57 27 92 90 115 26 9 98 -3
138 -23z m7599 10 c49 -23 63 -45 63 -99 l0 -39 -142 35 c-79 19 -145 36 -147
38 -10 10 37 45 83 63 64 25 91 25 143 2z m-7925 -123 c21 -12 38 -25 38 -28
0 -4 -37 -19 -82 -35 -46 -16 -107 -39 -136 -52 -29 -13 -57 -23 -62 -23 -6 0
-10 20 -10 44 0 53 34 101 83 116 45 13 125 3 169 -22z m507 -54 c29 -47 52
-87 50 -89 -2 -2 -44 -8 -94 -14 -249 -30 -616 -151 -917 -302 -119 -60 -307
-170 -345 -203 l-28 -24 34 -134 c116 -460 289 -851 505 -1142 36 -48 66 -89
66 -91 0 -2 -43 -13 -95 -25 l-95 -22 -19 24 c-40 48 -142 220 -200 336 -72
144 -137 303 -236 581 -115 326 -167 444 -243 559 -19 29 -33 54 -31 56 2 1
46 13 97 25 120 29 252 82 539 220 394 188 553 245 908 324 44 10 52 4 104
-79z m7264 56 c275 -61 445 -122 760 -274 208 -100 403 -179 575 -232 67 -20
122 -41 122 -44 0 -4 -15 -33 -34 -64 -55 -91 -156 -331 -256 -606 -102 -279
-144 -381 -226 -540 -53 -103 -173 -303 -198 -328 -9 -10 -30 -8 -106 8 -51
11 -95 21 -97 23 -2 2 26 43 63 91 208 276 380 658 499 1109 19 73 35 144 35
159 0 23 -14 35 -117 96 -339 200 -603 313 -928 397 -71 18 -176 39 -233 46
-56 7 -101 15 -100 19 5 12 103 169 106 170 1 0 62 -13 135 -30z m478 20 c53
-15 81 -50 87 -110 3 -29 1 -50 -5 -50 -6 0 -41 13 -79 28 -38 16 -100 39
-137 51 -57 19 -66 25 -56 38 35 42 122 62 190 43z m-7232 -111 c24 -40 73
-103 109 -140 44 -47 60 -70 51 -74 -8 -3 -91 -20 -184 -39 l-170 -34 -29 27
c-53 48 -206 224 -206 237 0 10 130 46 315 87 61 14 68 9 114 -64z m6228 51
c204 -47 263 -63 263 -70 0 -14 -209 -244 -234 -257 -22 -12 -45 -9 -188 22
-90 19 -166 35 -170 35 -21 0 -3 31 42 75 28 28 76 87 106 133 37 55 61 82 74
82 11 0 59 -9 107 -20z m-7589 -85 c56 -26 64 -40 30 -51 -13 -3 -78 -33 -146
-65 -121 -57 -128 -58 -133 -19 -4 43 4 72 28 101 53 63 133 75 221 34z m8960
-2 c46 -34 65 -69 65 -118 0 -25 -2 -47 -4 -50 -6 -5 -268 112 -284 126 -13
13 14 37 61 55 50 18 128 12 162 -13z m-7992 -94 c16 -23 76 -86 133 -140 58
-54 103 -100 100 -102 -13 -10 -200 -89 -202 -86 -2 2 -18 29 -37 59 -55 92
-90 132 -105 120 -15 -13 -48 -92 -70 -172 -9 -32 -19 -58 -22 -58 -3 0 -28
20 -55 45 -98 88 -328 225 -378 225 -18 0 -20 -6 -20 -82 1 -46 9 -129 19
-185 11 -66 14 -103 7 -103 -5 0 -61 5 -123 11 -129 13 -251 3 -393 -32 -116
-29 -122 -33 -108 -67 49 -116 244 -352 353 -427 30 -21 55 -41 55 -44 0 -3
-35 -28 -78 -56 -78 -51 -202 -167 -202 -190 0 -34 251 -103 436 -120 l71 -7
-40 -76 c-53 -101 -72 -161 -52 -168 8 -3 60 4 116 16 55 12 102 20 103 18 2
-2 21 -48 43 -103 l40 -101 -199 1 -199 0 -33 40 c-92 111 -239 360 -324 550
-100 222 -219 582 -239 721 l-5 42 108 64 c389 230 695 351 1069 423 66 13
139 24 161 24 37 1 44 -3 70 -40z m7055 20 c119 -21 367 -86 455 -119 90 -33
306 -131 394 -178 139 -74 262 -144 307 -174 l41 -28 -14 -62 c-48 -208 -148
-505 -240 -711 -72 -162 -197 -372 -312 -522 l-38 -50 -197 -1 c-108 -1 -197
0 -197 2 0 8 72 190 78 196 4 4 52 -2 106 -13 54 -11 105 -18 113 -15 19 8 9
45 -43 150 -24 49 -43 90 -42 91 2 2 50 8 107 15 125 14 272 50 348 84 l55 26
-22 30 c-30 42 -145 140 -213 181 -31 19 -56 36 -56 39 0 3 22 20 49 38 27 19
87 74 134 122 104 108 252 327 234 345 -15 16 -213 55 -320 65 -96 8 -145 7
-223 -4 -55 -7 -101 -13 -101 -12 -1 1 7 42 17 91 11 51 19 132 19 188 0 117
0 117 -122 54 -108 -55 -182 -105 -258 -173 -33 -29 -64 -54 -69 -54 -4 0 -16
30 -26 68 -22 81 -65 174 -80 169 -9 -3 -121 -161 -128 -181 -2 -6 -177 62
-205 80 -2 1 59 65 135 142 159 161 139 153 314 121z m-9286 -170 l240 -101 1
-63 c0 -53 6 -72 30 -112 36 -58 106 -103 169 -110 25 -3 45 -9 45 -14 0 -5
-9 -23 -20 -41 -27 -44 -26 -119 1 -175 24 -50 81 -101 122 -110 35 -7 43 -20
24 -41 -56 -64 -59 -141 -10 -220 23 -37 42 -54 92 -78 l64 -31 -89 -62 c-49
-34 -114 -80 -145 -102 l-56 -40 -62 36 c-35 21 -94 66 -132 102 -160 151
-221 281 -329 696 -71 276 -133 442 -201 539 -11 14 -19 29 -19 33 0 9 -6 11
275 -106z m918 95 c81 -27 78 -36 -31 -87 -90 -42 -197 -87 -207 -87 -3 0 -5
19 -5 41 0 55 30 102 83 128 50 25 97 27 160 5z m9628 -7 c65 -35 106 -115 80
-156 -8 -12 -20 -10 -78 14 -105 44 -223 104 -223 114 0 5 19 18 43 30 56 28
122 27 178 -2z m1029 17 c0 -4 -15 -32 -34 -63 -68 -112 -118 -254 -196 -556
-23 -88 -53 -194 -66 -235 -60 -181 -163 -346 -273 -439 -62 -51 -159 -111
-180 -111 -9 0 -68 37 -131 83 -64 45 -127 89 -140 98 l-25 17 60 26 c72 33
102 58 126 111 32 69 21 156 -25 194 -23 20 -20 28 17 40 119 40 184 182 129
287 -23 46 -21 54 17 54 33 1 109 35 139 63 41 38 64 96 66 163 l1 61 175 74
c96 40 207 87 245 105 69 32 95 40 95 28z m-8733 -79 c3 -9 -251 -82 -323 -92
-37 -6 -69 22 -38 34 28 11 327 71 343 70 8 -1 16 -6 18 -12z m5828 -26 c88
-18 162 -33 164 -35 9 -8 -23 -34 -43 -34 -11 0 -61 13 -111 29 -49 15 -120
34 -157 41 -38 8 -68 17 -68 21 0 10 22 18 40 14 8 -2 87 -18 175 -36z m-8120
-19 c45 -19 90 -63 81 -78 -5 -9 -64 -22 -173 -38 -24 -3 -45 -9 -48 -13 -2
-4 22 -46 54 -92 84 -123 84 -122 9 -117 -114 7 -198 92 -198 199 0 131 136
200 275 139z m10401 -5 c116 -68 95 -249 -36 -315 -65 -32 -140 -36 -140 -6 0
6 27 48 60 94 33 46 60 90 60 98 0 9 -11 14 -30 14 -42 0 -183 29 -194 40 -15
15 60 78 112 95 58 18 114 12 168 -20z m-9276 0 c109 -55 360 -243 360 -269 0
-13 -171 -116 -193 -116 -6 0 -51 14 -99 31 -101 37 -101 35 -123 194 -17 119
-19 185 -5 185 6 0 33 -11 60 -25z m8020 -22 c0 -76 -38 -287 -54 -298 -7 -5
-51 -23 -98 -39 l-84 -29 -97 53 c-53 30 -97 58 -97 63 0 13 53 61 135 123 83
62 264 174 282 174 9 0 13 -15 13 -47z m-6782 17 c34 -21 34 -21 17 -47 -10
-14 -26 -41 -37 -59 -15 -25 -29 -35 -56 -40 -145 -25 -324 -90 -522 -190
-151 -76 -542 -304 -573 -333 -17 -16 -15 -27 38 -237 120 -472 207 -710 330
-902 44 -68 47 -76 41 -120 -12 -78 -14 -82 -51 -82 -29 0 -40 8 -74 50 -111
141 -200 360 -362 900 -93 308 -110 356 -150 428 l-29 52 25 10 c15 6 32 10
38 10 32 1 195 79 398 193 460 257 608 320 879 376 25 5 47 9 50 10 3 0 20 -8
38 -19z m5597 0 c86 -17 263 -75 385 -127 116 -49 261 -124 480 -248 202 -115
298 -162 372 -182 35 -9 64 -17 66 -18 1 -1 -15 -36 -36 -77 -45 -88 -83 -203
-153 -458 -101 -366 -212 -642 -327 -812 -58 -85 -55 -83 -98 -92 l-31 -7 -11
70 -12 70 40 62 c130 201 217 439 340 929 l52 204 -27 22 c-52 42 -383 235
-528 308 -180 91 -370 167 -494 196 -90 22 -94 24 -126 69 -18 25 -36 51 -40
58 -9 14 52 54 73 48 8 -2 42 -9 75 -15z m-6329 -82 c23 -35 45 -68 48 -75 6
-11 -94 -73 -141 -87 -20 -7 -23 -4 -23 22 0 15 11 60 24 98 32 92 37 104 45
104 3 0 25 -28 47 -62z m7014 10 c43 -100 56 -178 30 -178 -5 0 -43 18 -85 41
l-76 41 21 32 c12 17 33 50 48 74 15 23 30 42 33 42 4 0 17 -24 29 -52z
m-6157 -12 c111 -61 256 -104 408 -121 80 -9 79 -4 42 -294 -10 -77 -13 -154
-9 -200 8 -104 0 -114 -63 -78 -71 39 -136 57 -212 57 -107 0 -189 -31 -384
-145 -101 -59 -199 -105 -225 -105 -31 0 -55 74 -55 170 0 72 4 93 27 136 77
146 246 211 377 145 73 -38 84 -17 22 43 -104 101 -112 268 -21 396 12 17 24
30 27 30 2 0 32 -15 66 -34z m5328 -13 c86 -137 74 -269 -38 -384 -55 -57 -43
-71 30 -38 143 64 306 0 378 -147 48 -100 30 -294 -29 -302 -20 -3 -80 26
-345 168 -54 28 -121 58 -150 66 -110 29 -237 10 -344 -53 l-43 -25 0 124 c0
67 -7 166 -15 218 -8 52 -15 132 -15 177 l0 82 33 5 c17 2 68 9 112 15 106 15
201 46 300 97 44 23 83 43 88 43 4 1 21 -20 38 -46z m-4256 -68 c82 -22 149
-67 207 -142 28 -35 53 -63 56 -63 4 0 21 26 37 57 22 41 42 62 70 77 47 24
127 27 167 5 l27 -14 -66 -100 c-85 -130 -149 -263 -175 -367 -17 -68 -20
-102 -15 -193 3 -60 8 -119 12 -130 3 -11 -185 173 -419 409 -234 237 -426
433 -426 438 0 4 42 8 93 9 50 0 139 6 197 14 142 17 166 17 235 0z m838 -30
c301 -71 431 -128 543 -240 69 -68 134 -171 134 -213 0 -10 -25 -42 -56 -72
-30 -30 -82 -94 -115 -142 -33 -49 -62 -88 -64 -88 -2 0 -27 33 -56 73 -29 39
-85 110 -125 157 -95 110 -307 300 -335 300 -13 0 -33 -222 -32 -355 0 -77 8
-195 18 -263 9 -68 15 -125 13 -128 -3 -2 -39 3 -82 11 -43 8 -106 15 -140 15
-35 0 -84 3 -109 6 -43 6 -47 9 -68 58 -30 68 -38 231 -15 327 24 104 86 237
198 425 85 143 106 172 123 168 11 -2 87 -19 168 -39z m1652 -56 c161 -270
186 -318 214 -394 56 -154 60 -305 13 -431 -16 -45 -21 -49 -57 -56 -22 -4
-74 -7 -116 -7 -42 -1 -109 -8 -148 -17 -40 -9 -74 -14 -77 -12 -2 3 3 52 12
109 27 166 20 607 -10 636 -10 10 -119 -79 -230 -187 -111 -108 -210 -223
-255 -297 -14 -24 -28 -43 -31 -43 -3 0 -29 35 -59 76 -30 42 -84 108 -119
146 -54 60 -63 74 -57 96 22 91 171 252 290 313 89 46 162 70 350 113 83 19
161 39 175 45 14 5 30 10 35 10 6 0 37 -45 70 -100z m895 77 c52 -7 123 -11
158 -8 35 2 68 0 73 -5 6 -6 -151 -172 -422 -447 -237 -240 -434 -435 -436
-432 -2 2 1 24 8 47 7 24 12 89 12 144 -2 167 -58 319 -192 523 -34 51 -61 97
-61 102 0 14 30 27 82 35 38 6 56 3 91 -14 40 -19 97 -82 97 -107 0 -5 4 -16
10 -24 7 -11 24 2 83 65 133 144 201 160 497 121z m-4645 -93 c0 -77 4 -95 28
-140 15 -29 27 -54 27 -55 0 -2 -37 -3 -83 -3 -137 -1 -223 -58 -289 -192 -40
-81 -43 -177 -10 -263 26 -64 26 -70 10 -70 -7 0 -19 -4 -27 -9 -11 -7 -11
-12 2 -32 16 -22 15 -23 -38 -44 -114 -47 -182 -136 -205 -267 -20 -114 7
-196 92 -284 27 -29 46 -54 41 -57 -4 -3 -28 -10 -53 -17 -35 -9 -59 -26 -107
-76 -34 -35 -64 -64 -67 -64 -2 0 -25 33 -49 73 -95 152 -195 433 -298 835
-33 129 -59 235 -57 237 15 15 303 190 413 251 210 117 363 181 590 247 84 25
80 28 80 -70z m5716 62 c234 -66 439 -165 812 -393 86 -53 157 -101 157 -106
0 -22 -102 -402 -145 -542 -65 -210 -125 -358 -196 -485 -33 -60 -64 -109 -67
-109 -4 0 -16 14 -27 31 -29 44 -98 95 -157 115 l-50 16 50 49 c91 89 120 194
88 319 -30 119 -100 199 -205 237 -48 17 -49 17 -33 41 13 20 13 25 1 33 -8 5
-20 9 -27 9 -15 0 -9 27 17 75 11 21 16 56 16 115 0 74 -4 93 -30 145 -61 126
-176 200 -302 193 -35 -2 -63 1 -63 5 0 4 10 27 22 50 19 35 23 58 23 135 0
69 3 92 13 92 7 0 53 -11 103 -25z m-4161 -886 c0 -4 -21 -2 -47 3 -27 6 -95
10 -153 10 -89 1 -117 -3 -185 -26 -99 -34 -192 -82 -314 -164 -52 -35 -100
-61 -107 -58 -13 5 -34 66 -34 102 0 33 21 87 44 112 11 13 42 35 69 48 26 13
47 28 47 33 0 4 -18 21 -40 36 -89 62 -155 159 -171 255 -9 49 -8 89 6 198 10
75 18 182 18 236 l1 100 433 -440 c238 -241 432 -442 433 -445z m3376 572 c9
-87 13 -178 9 -208 -10 -84 -56 -163 -138 -238 -80 -74 -81 -65 3 -118 68 -43
98 -145 65 -223 l-14 -35 -53 34 c-29 19 -84 54 -123 79 -198 128 -348 171
-524 149 -47 -6 -86 -9 -89 -6 -2 2 186 197 419 433 l424 429 2 -71 c2 -39 10
-140 19 -225z m-6220 184 c88 -14 206 -46 232 -63 27 -18 -251 -142 -318 -142
-29 0 -430 160 -430 171 0 4 39 14 88 23 48 8 96 17 107 20 49 10 238 5 321
-9z m8524 4 c47 -5 108 -16 135 -23 l50 -13 -66 -31 c-102 -46 -355 -142 -377
-142 -45 0 -257 85 -306 122 -18 14 -16 16 35 35 48 18 157 45 229 56 53 9
219 6 300 -4z m-9469 -193 c33 -82 59 -151 59 -152 0 -13 -60 0 -95 20 -72 43
-118 133 -101 200 7 30 55 88 69 83 5 -1 36 -70 68 -151z m10159 141 c103 -81
33 -267 -114 -301 -27 -7 -28 -6 -22 21 10 44 108 293 115 293 3 0 13 -6 21
-13z m-9566 -96 c72 -32 152 -66 178 -76 53 -20 81 -54 126 -155 36 -81 75
-197 70 -210 -4 -14 -146 68 -234 135 -120 92 -257 247 -314 354 -12 23 -11
23 15 17 15 -4 87 -33 159 -65z m9045 27 c-49 -97 -220 -278 -349 -370 -71
-50 -176 -105 -185 -96 -18 17 95 287 137 327 22 21 379 180 406 181 9 0 6
-13 -9 -42z m-3834 -64 c12 -83 6 -395 -10 -519 -16 -120 -49 -280 -63 -302
-4 -6 -41 -16 -82 -22 -41 -5 -113 -21 -160 -35 -47 -13 -85 -24 -85 -23 0 17
-78 150 -120 205 -30 40 -55 75 -55 78 0 3 21 41 47 86 93 162 234 330 406
486 56 50 105 92 108 92 4 0 10 -21 14 -46z m-1448 -12 c123 -103 308 -319
410 -479 85 -132 84 -118 16 -210 -32 -43 -71 -107 -87 -141 -23 -47 -34 -61
-45 -56 -27 12 -204 53 -254 59 -44 6 -50 10 -64 43 -20 49 -49 204 -62 336
-20 201 -11 496 15 496 7 0 39 -22 71 -48z m854 -359 c32 -44 59 -89 59 -100
0 -10 -14 -42 -31 -72 l-31 -53 -21 19 c-106 93 -143 123 -152 123 -6 0 -46
-32 -89 -71 -42 -39 -78 -70 -80 -68 -13 14 -66 112 -66 123 0 23 75 128 156
220 l79 89 58 -64 c33 -35 86 -101 118 -146z m-5126 135 c4 -13 27 -77 51
-144 24 -67 44 -125 44 -129 0 -15 -73 5 -110 30 -39 27 -74 81 -85 132 -15
73 81 178 100 111z m9972 -17 c52 -76 20 -184 -70 -234 -39 -23 -97 -43 -97
-33 0 3 78 222 101 284 12 32 38 25 66 -17z m-7406 9 c30 -6 92 -29 139 -52
47 -23 90 -40 96 -39 7 1 26 -21 43 -48 18 -27 52 -66 77 -87 l46 -37 -51 -44
c-81 -70 -100 -145 -64 -245 16 -46 16 -48 -3 -63 -39 -32 -104 -13 -404 115
-157 67 -346 146 -420 177 -132 54 -168 73 -141 73 28 0 169 64 276 125 220
126 288 147 406 125z m4999 -28 c30 -12 116 -58 190 -102 74 -44 163 -90 198
-102 34 -13 62 -25 62 -28 0 -3 -141 -63 -313 -134 -171 -71 -372 -156 -446
-189 l-134 -59 -39 18 c-21 10 -41 21 -44 25 -3 5 3 34 12 65 19 68 15 141
-11 176 -11 13 -39 39 -63 58 l-43 33 64 66 c36 36 70 76 76 89 7 12 21 22 32
22 12 0 34 10 51 21 16 12 60 32 96 45 87 32 227 30 312 -4z m-6746 -143 l86
-42 16 -56 c9 -31 22 -78 30 -105 7 -27 11 -53 7 -58 -14 -23 -341 29 -460 74
l-57 21 54 50 c73 66 201 156 222 157 9 0 55 -19 102 -41z m8483 -33 c54 -41
111 -88 127 -105 l29 -30 -24 -10 c-60 -22 -171 -51 -249 -65 -109 -19 -250
-31 -250 -21 0 10 49 174 61 203 9 23 154 100 191 101 9 1 61 -32 115 -73z
m-4236 -144 c116 -119 219 -267 219 -315 0 -14 -70 -67 -88 -67 -5 0 -19 24
-33 53 -33 71 -129 214 -173 256 -19 19 -41 31 -49 28 -27 -10 -144 -167 -188
-252 -24 -47 -47 -85 -52 -85 -4 0 -26 12 -48 27 -46 30 -46 46 -3 120 72 124
262 333 303 333 9 0 59 -44 112 -98z m-2641 -178 c162 -68 305 -129 318 -134
19 -8 69 -97 60 -105 -2 -2 -25 -14 -53 -28 -96 -49 -131 -114 -119 -221 l7
-57 -55 7 c-30 3 -79 1 -111 -6 -42 -8 -62 -9 -71 -1 -7 6 -38 18 -67 27 -63
18 -152 65 -191 98 -82 73 -114 140 -178 374 -22 81 -51 172 -65 203 -14 31
-25 61 -25 67 0 6 57 -15 128 -45 70 -30 260 -111 422 -179z m5580 154 c-16
-37 -50 -139 -75 -228 -54 -193 -86 -258 -157 -326 -66 -64 -105 -86 -193
-115 -38 -12 -73 -26 -76 -32 -5 -6 -30 -5 -73 3 -38 7 -88 10 -117 6 l-50 -7
7 66 c11 111 -28 178 -129 220 -41 17 -45 31 -21 80 18 40 16 38 344 174 146
60 333 139 415 175 83 36 151 62 153 57 1 -4 -11 -37 -28 -73z m-7849 -30 c20
-46 48 -109 62 -140 l27 -58 -26 0 c-76 0 -174 99 -174 177 0 37 45 103 70
103 3 0 21 -37 41 -82z m9683 40 c20 -28 20 -90 2 -127 -22 -41 -80 -88 -126
-102 -22 -7 -43 -10 -46 -6 -5 4 75 196 108 260 11 21 38 10 62 -25z m-7971
-10 c9 -24 30 -95 47 -158 58 -218 91 -300 153 -387 41 -58 131 -118 216 -145
l71 -22 -78 -81 c-44 -44 -122 -134 -174 -200 -52 -66 -107 -131 -122 -144
l-26 -25 -33 31 c-50 47 -136 108 -208 147 -68 37 -196 86 -225 86 -14 0 -16
9 -12 53 12 148 133 261 283 263 41 1 71 6 73 12 2 7 -21 22 -50 35 -114 51
-178 135 -186 247 -9 128 53 248 157 302 76 40 95 37 114 -14z m6305 -4 c56
-37 105 -103 122 -164 15 -54 12 -151 -7 -205 -22 -66 -93 -136 -163 -162 -30
-11 -56 -25 -57 -30 -2 -6 31 -12 76 -16 61 -4 91 -11 131 -33 82 -45 146
-142 152 -232 l3 -42 -97 -33 c-118 -41 -227 -103 -318 -179 l-68 -57 -27 21
c-15 11 -78 84 -140 162 -62 78 -138 166 -169 196 -31 30 -56 57 -56 61 0 3
30 16 68 28 188 62 261 162 345 471 25 91 55 187 66 214 21 47 23 48 54 42 17
-4 56 -22 85 -42z m-4485 9 c81 -24 87 -32 87 -131 0 -46 7 -129 16 -184 9
-55 14 -101 12 -102 -2 -2 -32 4 -68 12 -48 11 -128 15 -305 16 -265 1 -355
-7 -355 -30 0 -24 148 -200 251 -299 52 -50 130 -117 174 -149 44 -33 84 -62
88 -66 5 -4 -27 -32 -70 -63 -43 -30 -109 -85 -147 -122 -81 -78 -80 -78 -190
-4 -125 83 -207 198 -259 365 -28 88 -120 455 -115 459 2 1 18 10 36 19 18 10
81 49 140 88 160 105 307 174 437 203 70 16 191 11 268 -12z m2829 8 c104 -27
194 -72 392 -195 92 -58 173 -107 179 -109 8 -2 6 -22 -6 -63 -9 -32 -29 -113
-43 -179 -35 -162 -76 -285 -127 -374 -56 -99 -157 -200 -242 -242 l-66 -32
-52 50 c-63 60 -137 120 -194 158 -24 15 -43 33 -43 39 0 6 31 32 69 58 128
88 441 411 441 455 0 26 -57 36 -248 41 -147 3 -226 0 -333 -13 -77 -9 -143
-15 -146 -12 -2 3 2 40 11 82 9 43 16 109 16 149 0 121 8 146 49 164 102 43
229 52 343 23z m-6499 -41 c-3 -11 -2 -40 2 -66 5 -36 16 -56 56 -97 27 -28
48 -52 46 -53 -1 -1 -40 -30 -87 -65 -47 -34 -125 -97 -175 -139 -100 -86
-745 -734 -745 -748 0 -15 275 -305 496 -522 143 -141 256 -241 359 -319 83
-63 154 -117 158 -121 4 -4 -9 -19 -30 -33 -49 -34 -74 -76 -82 -139 l-6 -50
-82 58 c-168 121 -309 250 -718 654 -231 229 -437 426 -458 439 -45 28 -47 25
72 120 47 38 197 185 333 328 393 412 433 449 808 745 42 33 60 36 53 8z
m9992 -79 c190 -142 282 -227 675 -621 217 -218 419 -411 448 -430 28 -18 52
-37 52 -41 0 -4 -15 -18 -32 -30 -18 -12 -238 -226 -488 -475 -401 -398 -474
-467 -615 -573 l-160 -120 -5 57 c-7 69 -17 89 -74 139 l-45 39 91 65 c149
104 318 260 629 579 162 165 295 305 297 310 8 21 -489 538 -667 694 -94 83
-259 215 -322 260 l-23 16 43 37 c50 42 71 85 71 143 0 48 -9 52 125 -49z
m-5932 54 c48 -7 94 -18 101 -24 14 -12 36 -84 36 -119 0 -17 -12 -20 -107
-28 l-108 -9 -9 -113 -9 -113 -26 6 c-82 20 -102 28 -111 46 -25 46 -52 354
-33 373 9 9 141 -1 266 -19z m2020 2 c10 -37 -20 -313 -37 -346 -16 -30 -52
-47 -111 -53 l-30 -3 -7 104 c-4 57 -10 107 -15 112 -4 4 -54 11 -110 15 -116
8 -114 5 -88 91 13 42 21 53 46 62 39 14 202 34 310 39 31 2 38 -2 42 -21z
m-1101 -49 c48 -59 129 -184 152 -236 l19 -43 -33 -34 c-19 -19 -37 -35 -41
-35 -4 0 -32 52 -63 115 -31 64 -64 119 -72 122 -8 3 -22 -3 -30 -13 -19 -24
-104 -197 -104 -213 0 -21 -26 -11 -59 23 l-33 34 38 73 c20 41 51 94 67 119
36 52 106 130 117 130 4 0 23 -19 42 -42z m-3995 -78 c13 -41 23 -80 23 -86 0
-12 -48 -26 -129 -39 -42 -7 -43 -6 -36 16 4 13 25 61 47 107 50 105 64 105
95 2z m7998 -12 c55 -111 55 -119 13 -112 -92 16 -138 26 -138 31 0 5 35 131
45 161 11 33 38 7 80 -80z m-8773 -77 c4 -3 -6 -24 -21 -46 -29 -42 -44 -46
-117 -26 l-28 7 55 42 c41 32 60 40 79 35 14 -3 28 -8 32 -12z m4138 4 c85
-15 178 -41 193 -54 7 -7 -10 -111 -19 -111 -2 0 -52 14 -111 31 -70 20 -142
32 -204 36 l-96 6 -6 -29 c-10 -51 15 -192 69 -380 5 -20 0 -23 -47 -33 -29
-6 -56 -8 -60 -4 -4 5 -19 51 -33 103 -30 109 -41 239 -29 355 l8 80 35 6 c67
12 215 9 300 -6z m1507 1 c13 -12 15 -248 4 -326 -11 -70 -46 -207 -56 -218
-2 -2 -28 2 -59 9 -62 14 -62 14 -26 109 26 69 56 282 44 314 -12 32 -185 16
-326 -29 -42 -14 -81 -25 -86 -25 -12 0 -35 102 -25 111 13 11 108 39 185 54
70 14 332 14 345 1z m3909 -23 c29 -21 54 -41 54 -45 0 -4 -17 -10 -37 -13
-21 -4 -46 -9 -55 -11 -11 -3 -25 8 -42 33 -32 46 -33 60 -3 66 12 2 24 5 25
6 2 0 28 -16 58 -36z m-4777 -57 c60 -119 61 -139 16 -206 -70 -103 -65 -102
-124 -18 -28 40 -51 81 -51 91 0 19 60 155 86 195 8 12 18 22 23 22 5 0 28
-38 50 -84z m-4689 -14 c18 -31 52 -87 76 -124 l44 -68 -33 0 c-46 0 -130 42
-156 78 -25 36 -36 81 -27 117 8 30 43 68 55 60 5 -3 24 -31 41 -63z m9344 49
c69 -76 12 -190 -116 -231 -74 -23 -74 -14 9 123 42 70 80 127 83 127 4 0 14
-8 24 -19z m-4999 -65 c28 -18 71 -53 96 -77 l47 -44 -14 -65 c-7 -36 -14 -91
-14 -123 0 -36 -4 -57 -10 -55 -6 2 -54 35 -106 73 l-96 70 6 90 c6 91 21 165
34 165 4 0 30 -15 57 -34z m662 -32 c7 -32 12 -89 13 -126 0 -66 0 -66 -37
-89 -21 -13 -66 -47 -100 -76 l-61 -52 -6 62 c-4 34 -12 90 -18 125 -9 45 -9
68 -1 80 16 26 173 144 186 139 6 -2 17 -30 24 -63z m-5159 17 c11 -6 23 -26
26 -46 13 -66 121 -145 198 -145 31 0 20 -19 -24 -42 -29 -14 -59 -21 -93 -20
-45 0 -477 49 -499 55 -5 2 47 51 115 110 l124 107 67 -4 c37 -3 76 -9 86 -15z
m9831 -70 c58 -49 114 -98 124 -109 19 -20 18 -21 -15 -26 -18 -3 -69 -10
-113 -16 -306 -38 -382 -40 -447 -11 -45 19 -64 41 -35 41 7 0 37 7 65 15 69
21 118 65 139 126 16 44 21 50 53 55 19 3 40 7 45 9 6 2 25 4 44 4 28 1 50
-14 140 -88z m-5676 54 c48 -9 115 -26 150 -38 l62 -22 3 -53 c2 -28 -1 -52
-5 -52 -4 0 -53 16 -108 35 -55 19 -115 35 -133 35 l-34 0 7 -42 c4 -24 22
-84 41 -134 19 -51 34 -95 34 -98 0 -3 -24 -6 -54 -6 l-53 0 -22 68 c-28 90
-51 212 -51 273 l0 49 38 0 c20 0 76 -7 125 -15z m1424 -77 c-6 -93 -23 -174
-54 -255 l-16 -43 -54 0 c-49 0 -54 2 -48 18 24 56 65 183 71 220 6 41 6 42
-21 42 -15 0 -75 -16 -132 -35 -58 -19 -109 -35 -114 -35 -6 0 -9 23 -7 53 l3
52 70 24 c77 26 196 48 264 50 l44 1 -6 -92z m-2032 48 c50 -8 131 -25 181
-37 l91 -21 11 -87 c7 -47 23 -122 37 -166 13 -44 21 -81 17 -83 -32 -10 -175
-100 -215 -133 -37 -32 -53 -40 -72 -35 -34 9 -205 127 -300 207 -139 117
-347 341 -331 356 25 25 432 24 581 -1z m3047 7 l27 -8 -83 -95 c-104 -119
-242 -251 -347 -331 -84 -64 -205 -139 -225 -139 -6 0 -37 21 -70 48 -32 26
-92 64 -132 85 -39 21 -72 43 -72 50 0 7 12 50 25 97 14 47 28 116 32 153 7
79 2 76 143 108 157 36 303 49 495 44 99 -3 192 -8 207 -12z m-3937 -50 c4
-27 22 -109 41 -183 57 -228 140 -366 283 -470 l62 -45 -83 -7 c-113 -8 -667
-9 -927 -1 l-212 6 37 30 c20 17 87 94 148 171 111 140 157 185 226 222 29 16
57 19 163 19 l128 0 -6 25 c-3 14 -8 55 -12 92 -5 62 -3 72 20 107 21 32 93
81 118 81 4 0 10 -21 14 -47z m4351 11 c48 -35 67 -84 61 -157 -3 -34 -8 -73
-12 -88 l-7 -25 129 0 c105 1 135 -2 165 -18 61 -30 123 -91 233 -231 57 -72
120 -144 140 -159 19 -15 35 -31 35 -36 0 -6 -239 -10 -610 -10 -335 0 -610 4
-610 8 0 4 23 22 51 41 162 110 272 312 323 596 9 50 19 96 21 103 6 17 40 7
81 -24z m-2764 -95 c75 -24 114 -45 123 -66 8 -22 36 -176 32 -180 -2 -1 -46
6 -98 15 l-94 18 -32 82 c-18 45 -36 100 -39 122 l-7 41 29 -7 c16 -4 55 -15
86 -25z m477 -47 c69 -118 59 -117 126 -12 41 66 60 88 66 78 12 -22 32 -186
25 -213 -5 -21 -9 -23 -39 -14 -40 12 -169 12 -219 0 l-38 -9 0 74 c0 83 17
177 31 169 5 -3 26 -36 48 -73z m721 54 c0 -30 -57 -196 -73 -213 -7 -7 -41
-17 -77 -23 -36 -5 -77 -12 -91 -16 l-26 -6 14 94 c8 51 20 99 28 106 11 12
197 82 218 82 4 0 7 -11 7 -24z m-4523 -58 c131 -206 153 -242 153 -250 0 -4
-28 -8 -62 -8 -58 0 -197 -19 -260 -35 -25 -6 -30 -1 -80 77 -69 106 -158 254
-158 261 0 9 65 14 221 15 l147 2 39 -62z m63 42 c11 -11 20 -25 20 -32 0 -10
96 -181 138 -245 13 -21 13 -23 -2 -23 -10 0 -53 55 -112 146 -52 80 -98 152
-101 160 -8 22 33 18 57 -6z m7670 11 c0 -20 -201 -311 -215 -311 -10 0 3 28
39 88 29 48 66 112 81 142 15 30 34 63 43 73 16 18 52 24 52 8z m406 -4 c11
-11 -196 -348 -214 -347 -4 1 -34 7 -67 15 -33 8 -109 18 -168 21 -83 6 -107
10 -103 20 7 18 166 264 185 288 15 17 29 18 188 14 95 -2 175 -7 179 -11z
m-8490 -167 c48 -80 93 -155 101 -166 13 -21 10 -23 -138 -78 -84 -31 -157
-55 -163 -53 -13 5 -216 329 -216 344 0 14 83 46 200 79 52 14 100 27 105 29
15 4 17 1 111 -155z m8654 128 c101 -27 200 -68 200 -82 0 -16 -195 -329 -212
-339 -10 -7 -61 8 -166 48 l-152 58 20 31 c11 17 53 85 92 151 39 66 77 130
84 142 15 23 12 24 134 -9z m-9402 -45 c133 -15 242 -31 242 -34 0 -3 -24 -18
-52 -34 -61 -32 -133 -83 -196 -137 -42 -37 -46 -38 -120 -38 -100 0 -364 18
-371 26 -6 6 231 244 245 244 5 0 118 -12 252 -27z m10321 -97 l124 -124 -39
-5 c-22 -4 -104 -9 -184 -12 -80 -3 -161 -8 -180 -11 -32 -4 -44 2 -124 64
-48 39 -117 87 -152 107 -36 21 -67 42 -70 47 -3 4 12 8 33 9 21 0 121 11 223
23 102 13 199 24 215 25 26 1 48 -16 154 -123z m-5647 46 c40 -32 80 -67 88
-77 14 -16 12 -20 -15 -39 -56 -40 -132 -116 -151 -151 -10 -19 -23 -35 -29
-35 -25 0 -166 181 -147 188 6 2 46 -6 90 -18 125 -31 123 -32 102 43 -24 86
-32 147 -21 147 5 0 43 -26 83 -58z m659 -44 c-12 -45 -21 -88 -21 -95 0 -18
29 -16 122 8 44 11 82 18 85 15 7 -7 -55 -94 -105 -148 l-44 -48 -49 68 c-26
37 -64 78 -84 92 -20 14 -46 33 -58 42 l-22 17 50 47 c60 57 139 108 143 94 2
-5 -6 -47 -17 -92z m-4922 -142 c84 -139 100 -171 89 -181 -34 -33 -227 -125
-260 -125 -44 0 -47 4 -148 170 l-83 134 33 28 c18 15 70 51 114 81 133 88
130 86 142 74 6 -7 57 -88 113 -181z m9309 147 c86 -53 192 -130 198 -146 3
-10 -145 -264 -173 -297 -3 -3 -27 -4 -54 -3 -40 1 -69 12 -159 63 -60 34
-110 63 -110 65 0 2 26 46 58 97 33 51 80 130 106 176 26 45 53 82 60 82 7 0
40 -17 74 -37z m-4578 -84 c153 -71 239 -226 228 -411 -7 -109 -36 -183 -99
-253 -92 -99 -234 -148 -365 -126 -207 36 -344 201 -344 412 0 145 69 272 193
351 74 47 120 58 232 55 82 -2 110 -7 155 -28z m-729 -51 c23 -33 58 -79 77
-100 19 -21 33 -40 31 -42 -2 -1 -47 -8 -99 -15 -52 -7 -109 -15 -126 -18 -29
-5 -35 0 -92 72 -68 88 -88 122 -79 132 13 12 121 31 184 32 l62 1 42 -62z
m1367 40 l43 -13 -39 -60 c-21 -33 -57 -80 -78 -104 l-40 -44 -53 13 c-30 7
-88 15 -129 19 l-76 6 45 50 c24 28 59 74 78 104 l35 54 85 -6 c47 -3 105 -12
129 -19z m-1663 -74 c15 -25 25 -47 23 -48 -1 -2 -30 -18 -63 -36 -91 -51
-196 -124 -239 -169 l-40 -41 20 -27 c28 -38 163 -134 251 -180 40 -21 73 -40
73 -44 0 -3 -14 -27 -30 -53 l-31 -48 -65 36 c-122 68 -239 166 -322 273 l-32
41 27 34 c49 61 158 169 207 205 54 40 165 102 183 103 6 0 23 -21 38 -46z
m1852 -13 c129 -87 259 -206 291 -267 24 -45 -161 -227 -319 -317 -91 -51 -88
-52 -128 15 l-21 36 74 40 c112 61 266 182 266 209 0 29 -175 165 -280 218
-30 15 -56 29 -58 30 -9 8 55 95 70 95 9 0 56 -27 105 -59z m-6237 3 c80 -3
151 -8 159 -10 9 -3 -33 -51 -114 -132 l-128 -127 -171 -3 c-94 -2 -196 1
-226 5 l-55 9 120 125 c66 69 129 131 140 137 12 7 42 10 75 7 30 -3 120 -8
200 -11z m1751 -13 c146 -39 334 -134 423 -212 l41 -37 -264 -7 c-145 -4 -500
-4 -788 0 l-525 7 67 40 c122 70 374 169 525 205 154 37 393 39 521 4z m7395
14 c171 -30 409 -111 579 -198 127 -64 128 -63 -45 -70 -196 -9 -1219 -9
-1327 0 -46 3 -83 10 -83 14 0 14 172 129 245 164 197 94 422 126 631 90z
m1589 5 c12 0 267 -251 273 -271 5 -12 -424 -12 -447 0 -9 5 -71 63 -136 128
l-119 118 39 7 c22 4 78 8 125 9 47 1 117 5 155 9 39 4 76 5 83 3 8 -1 20 -3
27 -3z m-10401 -135 c42 -68 76 -129 76 -134 0 -8 -71 -11 -215 -11 -124 0
-215 4 -215 9 0 16 259 273 269 267 5 -4 43 -62 85 -131z m10027 8 c71 -69
129 -130 129 -135 0 -4 -97 -8 -215 -8 -118 0 -215 2 -215 5 0 3 30 54 67 113
36 59 72 117 80 130 7 12 16 22 19 22 3 0 64 -57 135 -127z m-6385 45 c29 -18
54 -36 54 -39 0 -3 -27 -37 -61 -75 -33 -38 -65 -76 -69 -85 -6 -11 10 -37 63
-99 l71 -83 -24 -16 c-13 -9 -40 -26 -61 -38 l-37 -23 -78 56 c-98 70 -214
173 -214 189 0 26 262 245 292 245 5 0 34 -15 64 -32z m2607 21 c38 -20 180
-135 230 -187 l49 -49 -77 -69 c-42 -37 -109 -92 -149 -121 l-74 -54 -61 37
c-33 20 -61 38 -61 41 0 3 25 33 56 66 31 34 63 72 71 85 17 24 22 15 -92 149
l-36 42 53 35 c60 40 62 40 91 25z m-2083 -89 c-1 -3 -35 -21 -77 -40 -91 -41
-163 -87 -163 -103 0 -13 138 -95 203 -121 42 -17 41 -30 -7 -75 l-25 -24 -66
32 c-66 33 -205 131 -238 168 -17 20 -17 21 14 53 53 53 132 108 215 151 l79
41 32 -39 c18 -21 33 -40 33 -43z m1593 54 c75 -38 175 -105 227 -152 l45 -40
-35 -36 c-45 -48 -165 -130 -235 -162 -61 -28 -68 -27 -105 27 l-20 27 78 37
c42 20 99 50 125 67 46 29 47 31 31 49 -10 11 -65 43 -123 72 -58 28 -108 53
-110 54 -3 2 61 82 67 83 1 0 26 -12 55 -26z m-1280 -76 c-10 -41 -11 -191 -1
-235 l8 -33 -78 0 c-74 0 -147 11 -160 24 -7 8 16 25 102 77 l70 42 -26 21
c-14 12 -53 38 -87 59 -34 21 -61 42 -61 47 0 12 92 27 173 29 l69 1 -9 -32z
m1014 21 c35 -6 63 -15 63 -20 0 -11 -53 -50 -117 -85 -29 -16 -53 -32 -53
-36 0 -3 35 -27 78 -51 110 -64 115 -72 52 -86 -28 -6 -83 -11 -122 -11 l-70
0 7 47 c10 68 8 184 -4 214 -5 15 -7 30 -4 33 10 10 101 7 170 -5z m-1212 -85
c42 -31 73 -60 68 -64 -4 -4 -38 -28 -76 -55 -57 -40 -72 -46 -100 -41 -39 8
-189 87 -194 103 -4 11 186 113 212 113 7 0 47 -25 90 -56z m1473 -6 c40 -22
72 -45 70 -51 -4 -15 -187 -107 -212 -107 -11 0 -29 9 -40 19 -12 11 -45 35
-74 54 l-53 35 68 48 c37 27 74 52 83 55 23 9 78 -9 158 -53z m3935 -91 c27
-32 167 -264 167 -275 0 -16 -255 -193 -276 -191 -5 0 -42 55 -82 122 -39 67
-89 149 -110 181 -21 34 -32 61 -26 63 6 2 51 27 100 55 145 84 188 92 227 45z
m-9986 -99 c68 -68 123 -126 123 -129 0 -4 -71 -9 -157 -13 -87 -4 -184 -9
-216 -12 l-57 -6 -130 133 c-72 74 -130 137 -130 141 0 5 100 8 222 8 l223 0
122 -122z m371 109 c-6 -25 -153 -256 -163 -257 -6 0 -71 61 -145 135 l-135
135 223 0 c178 0 223 -3 220 -13z m193 -12 c24 -13 74 -40 112 -60 37 -19 67
-39 67 -44 0 -4 -36 -66 -81 -137 -44 -71 -92 -150 -105 -176 -13 -27 -28 -48
-32 -48 -22 0 -282 175 -282 190 0 5 119 203 166 278 21 32 95 31 155 -3z
m1594 15 c8 -12 -89 -87 -181 -140 -159 -91 -289 -123 -499 -123 -173 -1 -310
21 -484 79 -112 37 -360 153 -381 179 -11 13 72 15 763 15 484 0 778 -4 782
-10z m1279 -8 c-12 -9 -45 -35 -73 -57 -142 -110 -245 -314 -287 -567 -21
-123 -25 -127 -91 -79 -55 40 -76 88 -70 159 3 31 8 69 12 83 l7 27 -119 -1
c-102 -1 -125 2 -168 21 -62 28 -115 79 -213 202 -41 52 -104 125 -141 163
l-65 67 614 0 c583 -1 614 -2 594 -18z m321 -167 c39 -27 74 -52 78 -56 5 -4
-34 -38 -85 -76 -52 -39 -125 -99 -162 -134 -94 -88 -268 -297 -264 -317 5
-24 84 -32 318 -34 139 -1 225 4 299 16 57 9 106 15 108 13 2 -2 -3 -46 -12
-98 -8 -52 -15 -136 -15 -187 l0 -93 -57 -27 c-88 -40 -220 -43 -342 -8 -109
31 -243 97 -417 205 -71 44 -135 84 -143 88 -11 7 -10 20 7 78 11 39 30 115
42 170 57 265 114 390 229 506 50 50 98 86 140 107 l64 32 71 -68 c40 -38 103
-90 141 -117z m3155 154 c83 -44 181 -128 218 -187 54 -83 100 -211 157 -440
30 -119 55 -220 55 -224 0 -4 -15 -15 -32 -24 -18 -9 -98 -58 -178 -107 -80
-50 -178 -106 -218 -124 -148 -69 -290 -88 -418 -58 -116 27 -109 16 -122 183
-7 81 -17 166 -23 190 -7 23 -9 45 -7 48 3 3 48 -2 99 -10 155 -24 315 -29
474 -15 87 7 149 17 155 24 25 30 -249 326 -412 447 l-108 80 72 51 c39 27
106 83 147 123 42 40 78 74 80 74 2 0 29 -14 61 -31z m1184 -42 c-38 -40 -101
-115 -141 -167 -80 -106 -140 -161 -211 -193 -40 -18 -64 -21 -164 -20 -65 1
-118 -2 -118 -7 0 -5 5 -21 10 -36 16 -41 14 -127 -3 -160 -18 -36 -52 -66
-94 -88 -38 -19 -30 -34 -63 130 -37 186 -89 317 -174 431 -39 54 -78 90 -181
167 -18 14 45 15 594 16 l614 0 -69 -73z m1672 47 c-58 -40 -227 -117 -346
-159 -196 -68 -288 -86 -470 -92 -154 -4 -172 -3 -265 21 -63 16 -145 48 -220
86 -114 57 -235 139 -235 160 0 7 277 10 787 10 l788 0 -39 -26z m564 -109
c-121 -121 -160 -152 -160 -127 0 5 -32 60 -71 123 -39 63 -73 120 -76 127 -4
9 44 12 218 12 l224 0 -135 -135z m582 68 c-33 -38 -94 -101 -136 -142 l-76
-73 -133 7 c-72 4 -171 10 -219 14 l-87 6 126 128 126 127 229 0 230 0 -60
-67z m-8665 5 c16 -18 76 -91 133 -163 56 -71 127 -152 156 -178 30 -27 54
-54 54 -62 0 -7 -17 -16 -37 -20 -110 -20 -228 -113 -287 -224 -20 -38 -52
-127 -71 -197 -51 -185 -95 -315 -110 -320 -25 -10 -114 38 -156 83 -22 24
-50 65 -61 91 -25 57 -34 162 -19 219 22 80 106 165 194 194 61 20 47 39 -30
39 -166 2 -264 93 -297 277 -5 31 -4 33 37 43 128 33 275 111 392 208 27 23
54 42 60 42 6 0 25 -15 42 -32z m5984 6 c66 -71 228 -163 382 -216 l68 -23 -6
-45 c-15 -101 -78 -190 -168 -234 -41 -21 -66 -26 -124 -26 -41 0 -73 -4 -73
-10 0 -5 28 -23 63 -38 75 -35 121 -79 154 -151 22 -46 25 -63 21 -135 -5 -92
-25 -141 -86 -208 -33 -37 -119 -88 -149 -88 -20 0 -51 80 -92 235 -62 235
-93 306 -169 387 -56 60 -105 89 -196 118 l-68 22 69 67 c39 36 125 135 192
219 75 94 128 152 140 152 9 0 28 -12 42 -26z m-3644 -94 c26 -5 74 -12 105
-16 l58 -5 -53 -67 c-30 -37 -64 -84 -77 -106 l-23 -38 -66 6 c-92 9 -170 26
-177 37 -7 12 51 103 102 159 39 43 52 46 131 30z m1352 -35 c46 -50 101 -132
101 -151 0 -14 -98 -33 -184 -37 l-59 -2 -52 73 c-29 40 -64 86 -79 101 l-27
28 93 12 c51 7 94 14 97 17 2 2 19 4 36 4 26 0 41 -10 74 -45z m-5010 -20 c76
-30 143 -55 149 -55 7 0 12 -3 12 -6 0 -9 -201 -333 -210 -339 -19 -12 -289
70 -313 94 -9 9 24 69 136 249 38 61 74 112 79 112 5 0 72 -25 147 -55z m8709
28 c38 -55 192 -313 192 -323 0 -12 -43 -35 -102 -54 -86 -29 -211 -57 -219
-49 -4 4 -53 81 -108 171 -97 157 -100 163 -78 172 86 37 274 109 284 110 6 0
20 -12 31 -27z m-5559 -48 c30 -24 92 -65 137 -90 l82 -46 -24 -75 c-13 -41
-28 -113 -34 -161 -5 -49 -15 -90 -22 -94 -18 -12 -127 -36 -265 -59 -172 -29
-583 -27 -583 3 0 13 60 86 145 176 72 76 200 187 302 262 59 44 193 129 203
129 3 0 30 -20 59 -45z m768 -23 c31 -42 71 -82 102 -102 28 -18 51 -36 51
-40 0 -19 -156 -150 -179 -150 -14 0 -8 44 19 138 14 49 16 64 6 68 -7 3 -47
-5 -90 -16 -42 -12 -86 -20 -97 -18 -20 3 -18 8 23 63 45 61 102 125 111 125
2 0 27 -31 54 -68z m819 1 c30 -38 62 -80 70 -95 14 -27 13 -28 -8 -28 -12 0
-57 10 -100 21 -44 12 -82 19 -85 15 -3 -3 1 -34 10 -68 25 -94 31 -138 19
-138 -14 0 -122 82 -157 120 -28 31 -29 33 -11 44 57 34 121 93 153 141 19 30
40 55 44 55 5 0 34 -30 65 -67z m763 37 c79 -42 236 -162 344 -261 117 -108
259 -271 247 -283 -5 -5 -90 -11 -188 -14 -241 -6 -432 14 -614 65 -56 15 -58
17 -58 49 0 41 -23 149 -48 232 l-20 63 67 33 c36 19 98 59 136 90 39 30 72
55 74 56 2 0 29 -14 60 -30z m-5124 -90 c172 -18 177 -19 171 -36 -9 -25 -171
-268 -191 -288 -18 -17 -30 -18 -170 -12 -82 4 -160 10 -172 13 -22 5 -22 6
-6 37 24 46 163 268 181 289 12 13 25 17 47 13 16 -2 80 -10 140 -16z m7989
-27 c53 -73 179 -283 173 -289 -10 -10 -273 -27 -318 -20 l-45 7 -97 150 c-53
82 -97 153 -97 157 0 4 37 8 83 10 45 1 114 8 152 16 111 21 111 21 149 -31z
m-9076 -2 c26 -22 85 -64 132 -95 139 -91 133 -83 70 -90 -30 -3 -133 -15
-227 -26 -95 -11 -185 -20 -201 -20 -22 0 -52 25 -151 124 l-124 124 119 6
c66 4 130 8 144 10 14 2 62 4 108 5 83 1 84 1 130 -38z m10257 28 c104 -6 192
-13 194 -15 7 -6 -198 -213 -231 -233 -26 -16 -38 -16 -258 10 -127 15 -238
29 -247 31 -9 2 26 29 82 63 53 33 120 81 148 107 60 55 42 53 312 37z m-8786
-49 c6 -28 11 -58 11 -67 0 -9 -29 -68 -65 -133 -77 -139 -149 -304 -198 -455
-50 -151 -169 -627 -160 -636 5 -4 107 -66 228 -138 365 -219 560 -310 790
-367 116 -29 134 -41 171 -109 l19 -37 -25 -20 c-32 -26 -74 -21 -274 37 -187
54 -256 85 -578 263 -344 190 -463 247 -550 266 l-27 6 39 77 c46 88 80 190
145 426 103 375 210 648 322 827 51 79 82 110 114 110 25 0 28 -5 38 -50z
m7093 38 c32 -26 111 -147 158 -243 61 -125 125 -303 196 -544 98 -332 155
-504 187 -566 18 -33 33 -63 35 -66 1 -3 -26 -13 -60 -23 -68 -19 -244 -108
-573 -290 -243 -134 -371 -191 -544 -240 -164 -47 -213 -53 -246 -32 -14 9
-25 21 -25 26 0 5 14 31 32 59 25 42 38 53 72 62 206 53 298 86 501 183 216
103 605 334 605 358 0 31 -138 543 -181 673 -53 161 -133 336 -205 452 l-44
71 12 66 c12 61 15 66 38 66 15 0 33 -6 42 -12z m-7222 -5 c0 -4 -21 -38 -47
-77 -26 -38 -65 -106 -87 -150 -35 -70 -45 -81 -69 -84 -27 -3 -28 -2 -16 20
24 45 182 283 193 290 14 10 26 10 26 1z m7402 -148 c53 -83 97 -153 98 -157
0 -5 -12 -8 -27 -8 -25 0 -32 9 -60 68 -17 37 -57 107 -87 156 -31 48 -56 90
-56 93 0 2 8 3 17 1 10 -2 61 -71 115 -153z m-4529 66 c4 -4 -2 -33 -13 -65
-30 -89 -51 -217 -48 -293 l3 -68 65 3 c97 4 195 21 274 48 38 13 71 24 72 24
3 0 24 -97 24 -110 0 -27 -240 -70 -387 -70 -154 0 -150 -4 -158 132 -5 86 -3
136 9 208 15 84 42 193 52 211 4 8 95 -10 107 -20z m363 -62 c-19 -107 -22
-114 -54 -129 -29 -13 -180 -60 -194 -60 -4 0 -8 7 -8 16 0 26 62 203 75 214
11 9 186 50 193 45 1 -1 -4 -40 -12 -86z m973 47 c18 -14 48 -84 71 -168 23
-83 25 -82 -109 -36 -58 20 -98 40 -106 53 -13 19 -46 181 -39 188 7 7 169
-26 183 -37z m333 -80 c18 -75 22 -119 23 -254 0 -134 -3 -164 -15 -172 -20
-13 -235 -12 -323 1 -40 6 -103 19 -140 30 -62 18 -68 23 -64 42 3 12 9 39 12
60 4 20 10 37 12 37 3 0 35 -11 72 -24 63 -23 180 -42 284 -48 38 -2 51 2 58
15 15 25 -7 200 -37 304 -14 48 -27 92 -27 97 -1 5 21 14 48 21 63 15 67 11
97 -109z m-1524 79 c1 -1 -6 -23 -17 -47 -20 -46 -61 -185 -61 -205 0 -32 73
-21 194 29 38 15 73 28 77 28 5 0 9 -25 9 -55 l0 -54 -80 -25 c-91 -29 -184
-46 -254 -46 l-49 0 7 83 c7 93 38 233 62 278 15 30 17 31 62 24 26 -4 48 -8
50 -10z m1365 -62 c32 -102 36 -121 45 -225 l8 -88 -61 0 c-68 0 -170 20 -262
51 l-63 21 0 55 c0 48 2 55 18 50 9 -3 62 -22 117 -41 55 -20 110 -36 123 -36
32 0 29 34 -16 167 l-39 112 31 4 c78 10 73 13 99 -70z m-753 52 c30 0 76 4
102 8 l47 8 6 -33 c6 -30 -7 -145 -21 -191 -8 -26 -25 -9 -75 79 -23 40 -48
74 -54 74 -6 0 -19 -16 -29 -36 -21 -46 -79 -134 -87 -134 -11 0 -29 103 -29
172 l0 70 43 -9 c23 -4 67 -8 97 -8z m-160 -163 l12 -104 -38 -40 c-22 -21
-66 -57 -98 -79 -47 -31 -61 -37 -67 -26 -5 8 -14 65 -21 127 l-12 113 24 19
c14 10 59 45 100 77 88 69 81 75 100 -87z m411 104 c27 -25 70 -57 94 -73 l45
-28 0 -61 c0 -62 -16 -169 -29 -192 -8 -14 -125 63 -175 117 -30 31 -30 31
-18 93 6 35 14 91 18 126 3 34 8 62 11 62 3 0 27 -20 54 -44z m-3609 -104 c18
-11 52 -26 76 -33 23 -7 42 -14 42 -15 0 -2 -20 -22 -45 -45 -24 -23 -57 -67
-72 -98 -24 -48 -28 -68 -27 -136 2 -169 87 -286 247 -339 17 -5 17 -7 1 -31
-16 -24 -15 -25 10 -35 14 -5 26 -11 26 -12 0 -2 -10 -28 -22 -58 -32 -82 -31
-188 3 -260 36 -76 100 -144 165 -176 45 -22 68 -27 134 -27 l79 0 -27 -51
c-23 -45 -26 -62 -26 -142 l1 -90 -47 7 c-173 27 -448 154 -824 379 -100 60
-189 114 -199 122 -17 12 -14 26 43 251 108 428 198 666 324 865 l27 43 39
-49 c21 -27 53 -59 72 -70z m953 101 l91 -5 -1 -78 c0 -71 3 -82 30 -122 21
-29 49 -52 88 -71 l56 -28 -17 -46 -17 -46 -450 -188 c-247 -104 -451 -187
-453 -185 -2 2 10 30 26 62 16 33 49 129 72 214 51 185 93 282 149 343 48 52
131 99 220 123 35 10 66 24 68 32 4 9 13 11 27 7 11 -4 62 -9 111 -12z m4964
3 c9 -7 43 -21 76 -31 84 -24 131 -50 191 -106 68 -65 101 -136 164 -348 28
-95 61 -200 75 -232 13 -32 22 -59 20 -59 -2 0 -72 30 -157 66 -84 36 -268
113 -408 171 -293 121 -327 138 -346 175 -23 44 -18 63 22 77 91 33 141 117
131 221 l-5 60 86 1 c48 0 96 4 107 9 27 12 26 12 44 -4z m993 -108 c81 -149
124 -249 173 -399 48 -150 168 -617 160 -628 -11 -19 -385 -237 -540 -316
-226 -114 -440 -195 -517 -195 -23 0 -23 2 -20 73 4 69 -1 89 -43 190 -6 15 0
17 64 17 99 0 166 27 226 91 94 101 126 230 86 344 -30 81 -30 89 -3 93 22 3
30 26 12 37 -16 10 -12 35 5 35 29 0 110 48 147 87 20 21 49 65 65 98 24 52
28 72 28 150 -1 107 -19 151 -96 231 l-50 50 54 17 c58 18 132 76 156 121 8
14 17 26 21 26 3 0 36 -55 72 -122z m-8117 19 c45 -23 50 -18 -53 -47 -58 -15
-129 -81 -138 -126 -8 -43 -16 -48 -93 -62 -47 -8 -69 -8 -85 0 -25 14 -241
199 -241 207 0 3 113 20 250 36 265 33 282 32 360 -8z m4625 -42 c27 -41 50
-84 50 -97 0 -28 -91 -212 -105 -212 -13 1 -93 159 -101 199 -4 25 4 43 47
108 29 42 53 77 55 77 2 0 26 -34 54 -75z m4894 46 c125 -17 230 -32 232 -34
3 -3 -189 -169 -236 -204 -13 -9 -34 -9 -89 -1 l-72 11 -23 51 c-29 66 -81
109 -157 130 -32 10 -59 21 -59 25 0 15 94 49 135 50 22 1 143 -12 269 -28z
m-9214 -93 c0 -3 -21 -30 -46 -60 -154 -179 -302 -473 -429 -853 -60 -176
-125 -409 -125 -445 0 -41 378 -251 635 -352 202 -80 477 -157 640 -179 50 -6
94 -15 98 -19 5 -4 -15 -44 -45 -89 l-53 -82 -45 6 c-73 10 -306 71 -430 113
-144 49 -255 96 -495 212 -316 152 -513 230 -585 230 -16 0 -32 5 -35 10 -4 6
16 46 44 89 63 99 89 157 157 356 158 457 365 913 483 1063 l39 49 96 -21 c53
-12 96 -24 96 -28z m8834 -112 c128 -217 244 -476 356 -802 110 -318 157 -427
229 -534 17 -25 31 -50 31 -56 0 -7 -21 -15 -47 -19 -95 -14 -288 -91 -688
-275 -365 -167 -516 -220 -763 -267 -82 -15 -95 -15 -102 -3 -5 8 -29 47 -54
85 -53 82 -62 74 104 99 356 55 706 193 1123 443 74 44 107 70 107 83 0 72
-130 498 -211 689 -95 224 -253 502 -356 628 -20 24 -34 45 -32 47 2 3 42 11
88 20 47 9 87 19 90 22 10 10 69 -66 125 -160z m-9094 135 c0 -9 -116 -199
-144 -236 -15 -20 -16 -20 -42 9 -23 26 -26 36 -21 80 4 44 10 55 50 92 44 40
89 61 135 63 12 1 22 -3 22 -8z m9113 0 c96 -22 166 -111 147 -183 -6 -19 -20
-44 -31 -54 -25 -22 -19 -28 -102 106 -29 47 -61 97 -71 113 -18 26 -18 27 0
27 11 0 36 -4 57 -9z m-8423 -36 c0 -5 -17 -51 -37 -102 -41 -106 -39 -104
-148 -78 -76 18 -125 19 -125 2 0 -7 24 -61 53 -120 29 -59 51 -110 48 -112
-2 -3 -27 -5 -55 -5 -144 0 -446 -84 -446 -124 0 -19 115 -124 205 -187 73
-51 76 -54 57 -69 -155 -119 -215 -183 -322 -341 -66 -98 -83 -140 -60 -154 6
-4 56 -18 113 -32 85 -22 126 -27 242 -27 77 -1 169 3 206 7 l65 8 -18 -103
c-20 -116 -24 -263 -7 -273 6 -4 56 16 112 44 92 46 185 108 295 198 l39 32
32 -103 c17 -56 37 -111 45 -121 12 -17 16 -18 31 -5 10 8 40 48 68 90 27 41
52 77 53 79 4 5 185 -68 197 -79 5 -4 -8 -23 -30 -41 -51 -45 -127 -122 -185
-186 -44 -50 -50 -53 -95 -53 -67 0 -158 16 -297 51 -308 77 -599 201 -923
392 -120 70 -117 62 -78 213 93 360 268 765 444 1026 137 202 102 183 329 183
119 0 192 -4 192 -10z m8082 -22 c68 -65 264 -386 336 -549 91 -206 212 -572
241 -727 10 -56 18 -48 -159 -149 -372 -212 -667 -325 -1029 -392 -165 -31
-153 -36 -311 123 l-137 139 94 41 c52 22 98 41 102 41 5 0 25 -27 45 -60 44
-70 84 -120 97 -120 13 0 53 90 75 166 9 33 18 63 21 67 2 4 30 -16 61 -44 72
-66 160 -123 285 -185 83 -42 99 -47 108 -34 12 18 4 128 -20 269 l-17 102 65
-8 c37 -4 127 -8 201 -7 110 1 155 6 245 28 61 15 116 31 124 35 11 7 7 22
-23 77 -75 137 -208 295 -315 374 -33 25 -60 50 -60 55 0 6 39 37 86 70 88 61
193 155 193 173 0 13 -127 66 -205 85 -82 21 -193 37 -254 37 -28 0 -51 2 -51
4 0 2 20 46 45 98 24 51 47 105 51 121 6 25 4 27 -27 27 -19 0 -65 -7 -104
-15 -38 -8 -77 -15 -85 -15 -10 0 -28 34 -53 98 -21 53 -37 99 -37 102 0 3 86
4 191 3 l191 -2 30 -28z m-5191 -248 c5 -5 56 -11 114 -13 l104 -4 -6 -32
c-13 -66 -31 -101 -60 -118 -29 -17 -196 -38 -307 -38 l-49 0 6 123 c7 116 27
250 40 263 4 4 35 14 69 24 l63 17 8 -106 c5 -58 13 -110 18 -116z m866 95
c35 -69 65 -116 75 -118 22 -4 58 51 103 154 19 43 38 80 43 82 4 1 23 -13 42
-33 l34 -35 -25 -52 c-30 -66 -128 -215 -163 -247 -14 -13 -31 -21 -39 -18
-24 9 -134 163 -173 243 l-38 77 39 33 c22 18 40 32 41 31 1 -1 28 -54 61
-117z m1128 107 c36 -10 53 -20 62 -38 14 -29 33 -202 33 -300 l0 -69 -47 0
c-68 0 -230 18 -285 31 -44 10 -49 14 -59 52 -6 23 -12 56 -13 72 l-1 30 104
7 c56 4 105 9 108 12 3 3 8 52 10 110 7 119 3 115 88 93z m-1253 -155 c38 -79
93 -158 163 -233 l39 -42 64 68 c38 41 88 112 124 177 60 108 61 108 84 93 80
-51 74 -42 57 -83 -48 -116 -275 -382 -327 -382 -34 0 -222 200 -280 298 -27
46 -50 93 -50 104 -1 14 13 31 39 49 22 16 42 28 45 28 3 0 22 -34 42 -77z
m-4538 26 l26 -43 -30 -9 c-26 -8 -38 -4 -85 29 -30 20 -55 41 -55 46 0 8 33
15 87 18 27 1 35 -5 57 -41z m9589 36 c20 -4 37 -10 37 -14 0 -12 -98 -80
-114 -80 -22 0 -46 11 -46 21 0 5 10 25 23 44 23 36 34 39 100 29z m-783 -128
c-43 -96 -69 -131 -85 -114 -11 12 -59 168 -53 172 2 2 39 9 83 17 56 10 81
11 83 3 1 -6 -11 -41 -28 -78z m-8058 73 c29 -6 57 -15 61 -19 10 -9 -32 -162
-47 -172 -6 -4 -14 -4 -19 -1 -9 6 -97 184 -97 197 0 9 43 7 102 -5z m3652
-64 c29 -64 77 -137 119 -182 38 -41 35 -53 -52 -183 -91 -138 -205 -274 -332
-394 -111 -106 -146 -133 -156 -122 -13 12 -15 362 -4 479 13 134 36 270 57
343 l15 51 73 6 c40 4 106 17 147 31 41 13 82 24 91 25 11 1 25 -18 42 -54z
m793 35 c35 -11 93 -24 130 -30 119 -19 110 -13 133 -88 11 -37 27 -110 36
-162 18 -108 30 -473 20 -573 l-8 -67 -30 17 c-50 29 -210 186 -296 290 -93
113 -142 182 -202 281 l-42 71 51 68 c28 38 68 101 89 140 20 40 42 73 47 73
6 0 38 -9 72 -20z m-2567 -15 c34 -18 35 -24 15 -80 -31 -88 -15 -147 63 -227
l45 -47 -66 -71 c-37 -39 -67 -77 -67 -85 0 -8 -9 -15 -21 -15 -11 0 -49 -18
-85 -39 -81 -49 -146 -65 -238 -59 -90 7 -146 29 -326 128 -128 70 -193 101
-265 125 -15 5 45 34 220 107 132 55 332 140 445 188 113 49 215 89 228 89 13
1 36 -6 52 -14z m4488 -66 c408 -168 692 -291 692 -300 0 -5 -8 -9 -17 -9 -32
-1 -145 -54 -263 -124 -63 -38 -144 -80 -180 -94 -121 -47 -282 -30 -392 43
-21 14 -47 25 -58 25 -12 0 -26 12 -36 32 -9 18 -41 56 -71 86 l-55 53 45 39
c24 22 52 55 61 74 20 43 21 125 1 173 -8 19 -15 39 -15 44 0 11 51 38 73 39
11 0 107 -36 215 -81z m-7104 -6 c-14 -32 -42 -95 -62 -140 -20 -46 -42 -83
-48 -83 -16 0 -53 47 -61 78 -7 30 11 91 37 125 22 27 113 77 142 77 16 0 15
-5 -8 -57z m9535 28 c19 -9 49 -34 65 -55 26 -32 31 -47 31 -91 0 -46 -4 -58
-29 -84 -17 -17 -33 -28 -37 -24 -11 13 -119 260 -119 273 0 15 40 6 89 -19z
m-6758 -63 c131 -86 283 -162 368 -183 56 -14 97 -16 179 -12 59 3 117 9 130
12 12 4 22 3 22 -1 0 -5 -193 -205 -429 -444 l-428 -435 -1 87 c-1 48 -6 127
-12 175 -5 48 -10 135 -10 194 0 94 3 111 27 160 16 33 56 83 104 131 l79 77
-58 38 c-71 47 -106 107 -98 169 5 40 22 94 29 94 2 0 46 -28 98 -62z m4028
16 c30 -86 -11 -179 -101 -225 -21 -11 -38 -24 -38 -29 0 -5 33 -42 73 -82
121 -121 152 -217 127 -393 -7 -50 -16 -148 -19 -219 l-6 -129 -435 443 -434
442 49 -9 c101 -17 254 -10 330 15 102 33 280 124 355 181 36 27 70 48 75 47
6 -1 16 -20 24 -42z m-7183 -54 c132 -89 219 -156 217 -165 -2 -6 -22 -16 -45
-24 -124 -41 -186 -202 -113 -290 32 -37 31 -48 -4 -56 -41 -9 -110 -72 -132
-119 -24 -54 -24 -117 1 -166 11 -22 20 -41 20 -43 0 -2 -25 -9 -55 -16 -113
-25 -185 -113 -185 -225 l0 -61 -257 -107 c-141 -59 -259 -106 -261 -103 -2 2
12 31 32 64 55 89 90 184 152 400 65 226 123 412 167 526 41 109 131 239 209
302 58 47 175 123 189 123 3 0 32 -18 65 -40z m10395 -15 c64 -41 151 -131
204 -214 90 -139 150 -297 230 -606 65 -253 80 -295 147 -423 33 -62 59 -115
57 -117 -2 -2 -119 45 -259 103 l-254 107 -1 60 c-1 67 -20 112 -68 163 -30
31 -118 72 -157 72 -24 0 -24 -3 0 45 31 60 27 130 -10 188 -28 45 -108 107
-137 107 -19 0 -16 9 13 51 69 100 14 245 -110 290 -20 7 -35 17 -33 22 1 5
63 53 137 107 152 110 141 108 241 45z m-9275 -42 c-2 -10 -14 -54 -26 -98
-29 -105 -34 -113 -83 -134 -23 -10 -63 -28 -89 -40 l-47 -23 -73 50 c-76 51
-188 148 -188 162 0 13 70 37 190 63 140 31 156 34 248 36 65 1 73 -1 68 -16z
m8254 -7 c104 -23 240 -65 240 -75 0 -11 -122 -113 -201 -167 l-66 -46 -95 45
c-73 34 -97 50 -101 68 -4 13 -18 64 -32 113 l-24 89 102 -6 c56 -3 136 -13
177 -21z m-5040 -20 c0 -7 -5 -37 -10 -66 -22 -118 -31 -329 -20 -473 13 -164
17 -187 35 -187 41 0 324 277 429 420 43 58 79 106 80 107 2 2 28 -35 59 -80
31 -46 84 -113 117 -149 33 -37 60 -74 60 -83 0 -38 -57 -133 -114 -191 -108
-107 -245 -169 -560 -252 l-187 -49 -26 50 c-14 28 -59 105 -101 171 -142 227
-191 358 -192 507 0 75 15 166 37 221 l15 38 87 1 c47 0 122 6 166 13 110 18
125 18 125 2z m1670 -1 c47 -8 124 -15 171 -15 l87 0 21 -50 c45 -105 45 -262
0 -400 -33 -99 -78 -189 -183 -364 -53 -87 -96 -163 -96 -167 0 -5 -24 1 -52
12 -29 12 -117 34 -196 50 -301 62 -457 152 -573 332 -61 94 -61 97 12 175 35
37 89 105 120 150 l57 83 55 -78 c81 -116 195 -241 307 -341 101 -90 145 -120
156 -109 30 30 41 337 20 537 -9 85 -19 165 -23 177 -6 28 1 28 117 8z m-985
-110 c41 -36 82 -65 91 -65 9 0 48 29 87 65 39 36 74 65 78 65 12 0 69 -99 69
-119 0 -23 -95 -153 -175 -239 l-58 -63 -40 38 c-50 49 -197 243 -197 262 0
14 58 121 66 121 3 0 38 -29 79 -65z m-1136 -35 c-18 -85 -6 -261 23 -345 35
-98 108 -239 172 -334 l55 -81 -29 -15 c-84 -44 -192 1 -242 100 -11 22 -22
42 -24 44 -2 2 -38 -32 -79 -77 -90 -97 -154 -132 -247 -139 -35 -2 -157 4
-271 14 l-209 18 427 438 c235 241 429 436 431 434 3 -2 -1 -28 -7 -57z m3237
-817 c-33 -2 -124 -10 -201 -19 -256 -30 -334 -9 -457 126 -55 60 -75 76 -85
68 -7 -6 -13 -14 -13 -19 0 -5 -11 -27 -25 -47 -47 -71 -133 -99 -214 -71 -17
6 -31 15 -31 19 0 4 26 50 58 101 170 273 217 420 192 607 -6 47 -14 91 -17
96 -2 6 188 -185 425 -424 l429 -435 -61 -2z m-6866 844 c0 -12 -103 -294
-109 -300 -5 -5 -23 4 -41 20 -25 22 -33 39 -37 75 -3 26 -3 58 1 72 9 38 65
97 111 117 36 17 75 25 75 16z m9797 -21 c88 -41 133 -139 100 -218 -17 -39
-63 -77 -76 -62 -7 8 -111 288 -111 299 0 12 39 3 87 -19z m-7931 -60 c28 -13
100 -52 159 -86 157 -91 241 -128 315 -139 97 -16 213 8 297 60 19 12 37 19
40 15 3 -3 5 -48 4 -98 -1 -51 5 -144 14 -207 8 -63 15 -154 15 -201 l0 -87
-79 -7 c-135 -11 -309 -65 -405 -126 l-45 -29 -31 37 c-40 48 -62 120 -62 197
1 80 24 135 85 200 26 27 43 53 39 57 -5 5 -33 -3 -63 -17 -122 -57 -261 -18
-344 95 -83 113 -92 260 -23 348 14 17 26 15 84 -12z m6078 -16 c17 -29 21
-52 21 -130 0 -84 -3 -101 -27 -146 -32 -60 -94 -119 -156 -146 -60 -27 -167
-21 -231 11 -61 32 -74 14 -23 -33 21 -20 52 -60 68 -89 24 -44 28 -63 29
-127 0 -62 -5 -85 -28 -131 -15 -31 -36 -64 -47 -74 -20 -18 -22 -18 -98 22
-117 62 -265 103 -417 116 l-30 2 -3 75 c-2 41 4 123 12 182 9 59 16 159 16
223 0 64 3 115 8 113 4 -1 39 -19 77 -38 68 -34 74 -35 185 -35 104 0 122 3
184 29 38 16 116 55 174 88 171 97 234 129 251 126 8 -2 24 -19 35 -38z
m-7154 -24 c0 -33 -74 -225 -105 -272 -26 -40 -47 -58 -97 -83 -112 -56 -343
-149 -346 -140 -8 22 113 182 219 290 68 69 142 123 249 183 73 40 80 42 80
22z m8232 -28 c85 -45 212 -152 303 -255 81 -92 150 -194 143 -212 -5 -14
-390 155 -412 182 -39 47 -136 274 -136 319 0 13 34 1 102 -34z m-9142 -202
c0 -1 -27 -72 -60 -157 -38 -98 -64 -153 -72 -151 -22 5 -58 55 -64 90 -15 76
28 157 104 196 40 22 92 34 92 22z m10040 -21 c113 -57 146 -184 69 -266 -37
-40 -31 -48 -98 128 -27 70 -53 136 -56 146 -10 25 25 22 85 -8z m-4964 -199
c109 -138 299 -240 519 -281 50 -9 101 -19 113 -21 20 -4 23 -9 17 -31 -16
-66 -90 -123 -158 -123 -19 0 -55 6 -80 14 -25 7 -48 12 -50 9 -3 -2 -2 -50 0
-107 9 -170 -29 -244 -192 -378 -49 -40 -127 -109 -172 -152 l-83 -80 1 630 0
629 22 -29 c12 -16 40 -52 63 -80z m-116 -521 c0 -381 -4 -615 -9 -615 -6 0
-22 16 -37 35 -14 19 -77 76 -140 125 -131 105 -202 180 -235 247 -22 43 -24
61 -23 171 l1 124 -31 -6 c-100 -20 -134 -19 -179 7 -54 32 -102 111 -77 127
8 5 25 10 36 10 39 0 262 60 332 89 39 16 95 45 125 65 65 41 161 136 197 195
14 22 28 41 33 41 4 0 7 -277 7 -615z m-4089 584 c97 -31 254 -108 243 -119
-14 -14 -158 -58 -231 -71 -129 -23 -508 5 -503 36 2 11 385 174 411 175 9 0
45 -9 80 -21z m8459 -44 c69 -28 156 -65 193 -80 78 -32 77 -36 -29 -61 -93
-23 -329 -23 -439 0 -102 20 -225 57 -225 66 0 19 238 125 296 132 47 5 72 -2
204 -57z m-8073 -145 c48 -27 91 -50 95 -50 38 0 -39 -82 -153 -162 -75 -54
-248 -158 -262 -158 -24 0 20 320 46 347 9 8 152 65 184 72 2 1 42 -21 90 -49z
m7633 11 c56 -20 78 -33 87 -52 30 -61 58 -329 35 -329 -17 0 -199 114 -287
180 -105 80 -143 117 -129 129 28 27 191 110 204 105 8 -3 49 -18 90 -33z
m-9040 -26 c0 -17 -37 -79 -87 -144 -18 -24 -33 -47 -33 -51 0 -4 25 -10 55
-14 72 -8 146 -24 164 -35 24 -16 -14 -60 -76 -88 -68 -31 -147 -35 -186 -10
-106 69 -117 230 -22 303 63 47 185 73 185 39z m10386 -9 c88 -41 139 -136
115 -216 -16 -53 -63 -106 -108 -121 -73 -24 -200 10 -237 63 -9 12 -12 26 -7
31 11 11 101 33 169 42 28 4 52 9 52 12 0 2 -20 32 -44 66 -46 66 -76 119 -76
137 0 19 84 10 136 -14z m-6494 -60 c67 -68 114 -84 191 -63 29 8 60 18 70 22
13 6 21 -2 36 -36 19 -42 19 -43 -1 -93 -11 -28 -86 -215 -167 -416 -82 -201
-156 -386 -166 -412 -16 -43 -35 -56 -35 -24 0 27 -62 163 -139 305 -88 161
-103 206 -103 297 1 76 14 129 58 221 19 39 34 79 34 90 1 10 19 30 46 47 24
15 61 48 81 72 21 24 38 44 40 44 1 0 26 -24 55 -54z m2557 15 c17 -21 53 -53
80 -72 28 -19 51 -42 51 -51 0 -10 16 -46 35 -80 47 -86 69 -177 62 -255 -7
-76 -44 -165 -136 -333 -38 -70 -80 -157 -93 -193 -12 -37 -25 -67 -28 -67 -3
0 -14 24 -26 53 -12 28 -94 231 -183 451 -170 415 -174 431 -138 480 12 16 15
16 52 0 54 -22 131 -22 178 1 21 10 53 37 70 61 18 24 35 43 39 44 3 0 20 -17
37 -39z m2257 -82 c-20 -75 -50 -150 -62 -152 -11 -1 -93 113 -94 129 0 7 24
24 53 40 28 15 63 33 77 40 36 19 42 5 26 -57z m-7073 25 c37 -19 67 -41 67
-47 0 -14 -82 -137 -91 -137 -15 0 -83 203 -71 214 11 11 28 6 95 -30z m1282
-96 c-199 -214 -1055 -1074 -1055 -1060 0 36 95 295 151 411 72 151 146 263
234 359 124 134 264 232 407 286 74 28 233 64 287 65 l34 1 -58 -62z m4585 26
c307 -79 550 -295 730 -649 77 -152 175 -424 158 -441 -6 -5 -1091 1099 -1097
1117 -5 16 91 4 209 -27z m-4143 -8 c65 -8 151 -12 191 -9 39 3 72 2 72 -3 0
-5 -17 -42 -37 -83 -36 -71 -38 -78 -38 -175 0 -138 27 -210 179 -491 36 -66
66 -130 66 -141 0 -32 -61 -57 -145 -62 -230 -12 -394 211 -301 413 33 72 17
80 -42 22 -71 -68 -104 -82 -197 -82 -67 0 -89 4 -136 27 -31 16 -64 37 -73
47 -17 18 -16 21 8 58 53 79 108 252 121 378 3 33 8 75 11 94 l5 34 100 -7
c54 -4 152 -13 216 -20z m3863 -20 c0 -115 46 -291 110 -419 l39 -78 -23 -24
c-39 -39 -106 -67 -172 -73 -88 -7 -155 18 -216 79 -71 71 -81 67 -48 -19 60
-157 -7 -315 -164 -388 -85 -40 -247 -24 -279 27 -7 12 16 67 102 235 117 230
141 298 141 400 0 68 -28 172 -60 219 -35 53 -31 55 103 56 67 0 167 6 222 13
55 8 133 14 173 15 l72 1 0 -44z m-2875 7 c10 -45 52 -98 98 -124 34 -20 55
-24 113 -23 l72 1 4 -111 c3 -61 1 -115 -2 -121 -4 -5 -17 -41 -29 -79 -12
-38 -32 -88 -43 -110 -31 -60 -116 -145 -178 -176 -53 -27 -91 -39 -280 -90
-47 -13 -116 -38 -154 -57 -37 -19 -71 -32 -74 -29 -3 3 20 65 51 138 32 73
114 275 185 448 115 284 131 317 161 337 46 31 67 29 76 -4z m1634 9 c32 -16
42 -38 216 -463 100 -246 186 -452 189 -458 10 -15 6 -14 -58 14 -31 13 -131
48 -223 76 -198 60 -275 96 -339 158 -51 50 -108 158 -119 224 -4 23 -13 49
-21 58 -11 13 -12 27 -3 75 6 32 9 83 6 113 l-6 53 55 -7 c99 -12 175 29 219
120 15 30 32 55 39 55 6 0 26 -8 45 -18z m-2979 -31 c0 -88 -50 -270 -103
-376 -80 -162 -244 -339 -423 -458 -116 -77 -310 -172 -439 -215 -162 -53
-160 -56 -49 61 275 287 999 1027 1006 1027 4 0 8 -18 8 -39z m5022 -734 c188
-191 338 -350 335 -353 -3 -3 -67 18 -144 46 -368 138 -594 284 -742 480 -112
149 -172 284 -206 462 -31 166 -42 169 201 -72 118 -118 369 -371 556 -563z
m-7765 655 c48 -21 114 -52 147 -69 l59 -30 -27 -21 c-38 -29 -118 -45 -167
-32 -51 14 -106 63 -118 105 -9 35 -4 85 10 85 4 0 48 -17 96 -38z m-412 -68
c68 -26 149 -16 214 25 28 19 53 32 55 30 1 -2 8 -24 15 -48 17 -60 56 -96
126 -116 61 -18 68 -17 188 22 15 5 17 -1 17 -42 0 -43 4 -52 43 -90 33 -34
54 -45 98 -54 50 -11 64 -10 115 8 32 11 61 18 63 15 2 -2 -8 -73 -23 -156
-14 -84 -26 -160 -26 -170 0 -21 -67 -44 -177 -60 -149 -22 -349 19 -520 106
-37 19 -126 70 -196 115 -216 135 -422 232 -576 271 -27 7 -40 15 -34 21 11
11 249 116 397 174 l108 43 35 -39 c19 -21 54 -45 78 -55z m2265 61 c63 -20
134 -39 158 -42 45 -6 63 -19 38 -29 -16 -6 -148 16 -280 48 l-89 21 22 19
c13 10 26 18 30 18 3 0 58 -16 121 -35z m6185 19 c14 -10 16 -17 8 -22 -6 -4
-89 -23 -183 -41 -125 -25 -174 -31 -182 -23 -8 8 -3 13 18 17 65 15 212 55
249 69 51 19 65 19 90 0z m1810 -4 c17 -55 -52 -145 -124 -161 -63 -14 -181
19 -181 51 0 12 39 32 165 86 114 49 131 52 140 24z m730 -112 c105 -44 194
-83 198 -88 5 -4 -22 -15 -59 -24 -139 -35 -231 -79 -509 -244 -381 -226 -565
-281 -805 -238 -97 17 -150 40 -150 63 -1 10 -13 89 -29 176 -24 137 -26 157
-12 151 84 -35 129 -45 167 -39 80 12 145 76 158 154 3 23 8 41 10 41 2 0 21
-7 42 -16 55 -23 170 -15 212 15 39 27 72 80 72 115 0 32 7 33 50 1 94 -70
227 -58 308 28 l34 35 61 -25 c34 -14 148 -61 252 -105z m-8754 32 c79 -17
154 -32 167 -35 22 -5 20 -9 -33 -68 -31 -34 -82 -99 -113 -145 -38 -56 -61
-81 -71 -78 -9 3 -88 21 -176 41 -88 19 -168 39 -179 43 -17 7 -13 14 32 67
103 122 188 205 208 205 12 0 86 -14 165 -30z m6335 -32 c94 -99 177 -198 172
-203 -10 -11 -172 -50 -364 -90 -17 -4 -28 7 -57 53 -19 31 -67 95 -106 142
-39 46 -67 87 -63 91 4 3 52 13 107 23 55 9 123 23 150 30 88 25 96 22 161
-46z m-7762 -83 c76 -36 134 -70 131 -75 -10 -16 -67 -43 -110 -51 -57 -11
-114 7 -152 48 -29 30 -33 41 -33 89 0 39 4 54 14 54 7 0 75 -29 150 -65z
m9111 35 c22 -99 -91 -188 -203 -160 -46 11 -108 48 -98 57 9 10 271 132 283
132 6 1 14 -12 18 -29z m-8701 -206 c27 -11 50 -23 50 -29 1 -5 -19 -20 -44
-33 -37 -19 -57 -23 -109 -20 -58 4 -66 7 -97 41 -28 30 -34 45 -34 82 l0 45
93 -34 c50 -19 114 -42 141 -52z m8362 52 c9 -37 -21 -90 -65 -114 -63 -35
-154 -27 -215 20 -18 14 -9 19 110 66 71 28 137 51 146 51 11 1 20 -9 24 -23z
m-4701 -97 c39 -39 113 -105 165 -146 102 -81 190 -162 190 -175 0 -5 -29 -47
-65 -93 -77 -102 -129 -199 -165 -315 l-27 -85 -50 1 c-89 2 -176 64 -222 156
-26 52 -31 73 -31 135 0 92 -18 98 -49 14 -74 -203 -331 -251 -489 -90 -23 24
-51 66 -61 94 -17 46 -18 52 -3 68 8 10 61 31 116 48 367 111 361 109 443 171
67 51 124 137 149 222 10 36 21 66 24 66 3 0 37 -32 75 -71z m889 55 c3 -9 6
-24 6 -33 0 -41 71 -159 128 -213 71 -68 107 -87 242 -127 204 -62 352 -115
357 -128 8 -21 -23 -94 -58 -136 -63 -77 -185 -126 -278 -112 -103 16 -204 99
-236 196 -23 69 -40 58 -41 -28 -1 -149 -109 -273 -253 -290 l-48 -5 -27 83
c-38 120 -99 236 -172 329 -35 44 -64 84 -64 89 0 11 106 105 210 186 41 32
106 92 145 132 38 40 73 73 76 73 4 0 10 -7 13 -16z m3060 -92 c73 -129 101
-202 84 -213 -16 -10 -284 -75 -348 -84 l-45 -7 -68 153 c-37 84 -66 154 -64
155 4 4 356 91 374 93 7 1 37 -43 67 -97z m-6830 48 c93 -22 171 -42 174 -44
7 -8 -122 -298 -135 -303 -19 -7 -385 76 -401 91 -6 7 56 137 108 226 31 53
46 70 63 70 12 0 98 -18 191 -40z m-929 -76 c14 -3 50 -4 80 -2 30 3 55 1 55
-3 0 -5 -9 -64 -20 -131 -11 -68 -24 -195 -30 -283 -13 -215 -13 -960 0 -986
10 -18 24 -19 283 -19 514 1 902 21 1049 55 l58 13 -6 -53 c-8 -62 7 -112 44
-156 30 -37 25 -42 -61 -59 -173 -34 -321 -42 -922 -50 -384 -5 -630 -13 -664
-20 -29 -6 -55 -9 -58 -7 -2 3 1 62 7 132 7 78 10 333 8 664 l-3 536 28 190
c15 105 30 207 34 228 l6 37 43 -40 c23 -21 55 -42 69 -46z m420 32 c77 -17
140 -36 139 -41 0 -6 -21 -23 -46 -38 -85 -53 -190 -46 -232 15 -16 23 -22 98
-8 97 4 0 70 -15 147 -33z m7740 15 c8 -27 -17 -84 -50 -109 -41 -33 -117 -30
-186 6 -30 15 -54 34 -54 42 0 10 31 22 100 37 55 13 116 27 135 32 19 5 38 9
42 10 4 1 9 -8 13 -18z m389 -111 c36 -252 58 -726 55 -1225 -1 -180 3 -310
10 -344 6 -29 9 -56 6 -60 -2 -4 -37 -3 -77 2 -40 5 -309 8 -598 7 -539 -1
-696 6 -950 46 -141 22 -138 20 -102 57 49 52 64 92 60 159 l-3 60 30 -6 c105
-18 314 -38 488 -45 220 -10 849 -7 866 4 8 4 11 141 11 433 -1 455 -9 662
-34 807 -23 136 -24 171 -6 166 66 -15 165 12 200 54 20 24 26 7 44 -115z
m-8309 55 l6 -50 -44 -27 c-24 -16 -46 -28 -49 -28 -3 0 -1 28 4 63 7 49 15
67 36 84 15 12 30 19 34 15 4 -4 10 -29 13 -57z m7993 38 c18 -16 47 -130 36
-142 -2 -3 -23 9 -47 26 -38 27 -42 33 -40 69 5 68 15 78 51 47z m-6228 -38
c47 -34 48 -37 70 -132 33 -145 83 -281 159 -438 68 -140 320 -588 346 -614
12 -12 31 -10 132 14 397 93 773 232 981 362 70 43 76 45 124 39 95 -13 108
-33 57 -91 -41 -47 -146 -110 -309 -188 -160 -77 -285 -121 -595 -212 -257
-75 -394 -125 -443 -162 -18 -14 -36 -23 -38 -20 -3 3 -12 31 -21 64 -19 75
-69 180 -175 373 -184 334 -278 544 -342 767 -46 161 -53 215 -32 248 9 14 21
25 27 25 6 0 33 -16 59 -35z m4494 13 c22 -31 20 -77 -8 -193 -52 -215 -151
-446 -319 -745 -102 -182 -194 -374 -218 -452 l-21 -68 -35 21 c-89 55 -207
97 -623 219 -236 70 -359 119 -525 209 -153 84 -225 142 -225 183 0 23 6 28
50 37 73 16 76 15 144 -28 192 -121 530 -250 891 -340 247 -61 219 -61 258 1
19 29 83 139 143 243 178 313 290 563 329 735 29 126 32 133 83 167 57 38 57
38 76 11z m-4129 -85 c1 -137 68 -243 190 -304 86 -42 160 -48 240 -20 101 37
95 36 95 6 0 -22 3 -26 18 -20 41 17 52 17 52 1 0 -29 49 -114 87 -152 20 -20
61 -48 92 -63 47 -22 70 -26 146 -26 80 0 97 3 150 30 40 20 70 44 90 72 33
46 45 53 45 25 0 -41 62 -143 111 -182 l48 -38 -62 -40 c-102 -67 -282 -148
-457 -206 -161 -54 -568 -166 -601 -166 -19 0 -104 136 -229 368 -148 274
-270 566 -286 684 l-6 46 78 -1 c66 -1 88 3 134 25 30 15 57 27 60 27 3 1 5
-29 5 -66z m3712 52 c37 -26 132 -45 191 -38 l55 6 -8 -49 c-19 -132 -127
-397 -267 -657 -80 -150 -211 -373 -229 -391 -10 -11 -26 -8 -329 74 -345 94
-522 162 -715 277 -94 57 -92 51 -36 100 48 42 101 129 101 165 0 27 12 22 55
-23 65 -66 116 -91 200 -97 56 -3 89 0 142 17 106 32 167 93 213 215 7 19 15
26 25 22 8 -3 22 -9 30 -12 9 -4 15 -1 15 7 1 34 16 42 48 25 117 -61 296 -24
393 82 61 66 83 122 84 214 0 43 2 78 5 78 3 0 15 -7 27 -15z m-5524 -87 c-19
-54 -53 -86 -334 -311 -97 -78 -125 -92 -115 -59 3 9 10 80 16 157 7 85 17
149 26 162 8 13 37 38 65 57 l51 34 41 -19 c66 -29 131 -25 202 15 33 18 62
29 63 24 2 -4 -4 -32 -15 -60z m7350 35 c58 -37 147 -44 204 -14 l41 20 56
-40 c31 -22 60 -49 66 -59 16 -29 42 -330 29 -330 -10 0 -91 62 -259 200 -152
124 -170 144 -195 228 -9 29 6 28 58 -5z m-6013 -83 c11 -52 31 -131 45 -174
23 -75 24 -81 8 -98 -9 -10 -20 -15 -24 -11 -9 9 -69 311 -69 346 0 22 9 41
16 34 2 -1 12 -45 24 -97z m4670 56 c0 -31 -58 -337 -66 -345 -8 -9 -34 23
-34 43 0 11 11 55 24 96 13 41 32 114 41 162 17 86 35 108 35 44z m-4705 -196
c19 -95 35 -177 35 -182 0 -21 -238 -248 -261 -248 -4 0 -13 18 -19 39 -20 76
-59 261 -65 308 l-5 48 55 35 c31 19 93 67 138 106 45 39 83 70 85 69 1 -1 18
-80 37 -175z m4817 114 c40 -36 101 -84 136 -107 l63 -42 -5 -55 c-8 -82 -69
-333 -82 -337 -14 -5 -189 150 -232 205 l-32 40 29 143 c16 79 32 161 35 182
4 20 9 37 11 37 2 0 37 -30 77 -66z m-5922 -74 c102 -23 190 -44 197 -46 8 -2
4 -28 -13 -91 -40 -145 -53 -178 -84 -208 -33 -32 -32 -32 -259 22 l-113 27 5
58 c8 87 59 290 71 285 6 -3 94 -23 196 -47z m7135 -13 c19 -66 45 -212 45
-253 l0 -31 -156 -38 c-170 -41 -191 -41 -226 5 -18 25 -87 238 -88 273 0 12
8 17 28 18 15 0 104 20 197 43 94 23 173 41 177 39 4 -2 15 -28 23 -56z
m-7400 -48 c-9 -41 -23 -121 -31 -179 l-15 -105 -57 -58 c-65 -66 -259 -240
-273 -245 -5 -2 -9 66 -9 169 l0 172 48 44 c26 24 94 81 151 126 58 45 124 99
149 120 24 21 46 36 48 34 3 -2 -3 -37 -11 -78z m7634 -81 c80 -65 156 -127
169 -137 21 -19 22 -25 22 -195 0 -97 -2 -176 -5 -176 -6 0 -306 268 -321 287
-7 7 -15 44 -19 81 -6 62 -36 224 -52 281 l-6 25 33 -24 c18 -13 98 -77 179
-142z m-3929 -695 c0 -790 -1 -798 -20 -773 -65 85 -168 326 -210 494 -72 285
-60 540 37 786 43 110 157 290 184 290 5 0 9 -314 9 -797z m120 707 c159 -233
220 -516 175 -813 -28 -188 -75 -327 -189 -557 l-71 -145 -3 590 c-2 325 0
686 4 803 6 212 6 213 26 195 11 -10 37 -43 58 -73z m-2796 -22 c4 -24 23
-110 43 -193 l36 -149 -32 -27 c-32 -27 -208 -121 -248 -133 -19 -6 -23 -1
-37 48 -24 82 -76 315 -76 340 0 18 24 32 143 88 78 36 147 67 153 67 6 1 14
-18 18 -41z m5553 -25 l145 -68 -5 -46 c-6 -49 -74 -346 -83 -360 -8 -13 -92
23 -200 86 -54 32 -100 59 -102 60 -3 2 72 336 84 378 3 9 8 17 10 17 3 0 71
-30 151 -67z m-5007 -219 c0 -1 -40 -30 -90 -63 -49 -34 -90 -68 -90 -76 0
-12 89 -51 193 -85 20 -6 37 -14 37 -16 0 -3 -31 -42 -68 -88 -62 -77 -159
-242 -192 -324 -11 -29 -11 -35 1 -44 19 -13 176 -3 272 17 43 9 81 14 84 12
2 -3 -1 -56 -7 -117 -7 -62 -9 -144 -5 -183 16 -172 55 -347 77 -347 15 0 123
66 204 125 86 64 189 167 239 240 21 30 41 55 44 54 3 0 31 -38 61 -85 30 -46
83 -112 118 -147 73 -72 67 -75 112 58 37 111 57 209 66 314 4 45 10 81 15 81
4 0 49 -20 100 -45 51 -25 101 -45 111 -45 23 0 23 29 2 140 -8 45 -13 85 -10
88 8 7 189 82 192 79 6 -6 7 -397 1 -403 -3 -4 -57 -44 -119 -90 -224 -166
-452 -287 -701 -373 -194 -67 -499 -153 -508 -144 -17 17 -256 470 -292 554
-95 220 -207 653 -207 798 0 43 3 47 98 140 54 53 115 115 136 139 l38 44 44
-104 c24 -56 44 -103 44 -104z m4604 -24 c63 -51 61 -30 25 -255 -38 -233
-103 -438 -230 -722 -63 -142 -216 -432 -243 -461 -10 -10 -59 1 -250 58 -303
90 -400 126 -565 211 -110 57 -414 249 -496 314 -19 15 -20 31 -25 220 -3 113
-4 205 -3 205 9 0 190 -73 196 -79 5 -5 1 -45 -7 -91 -22 -114 -21 -140 5
-140 11 0 61 20 110 45 49 25 94 45 99 45 4 0 11 -30 15 -67 11 -108 62 -330
90 -391 l26 -56 50 50 c45 44 137 159 179 223 l16 23 29 -43 c87 -133 408
-395 459 -376 45 17 90 398 67 561 -6 44 -9 81 -7 83 2 2 38 -3 81 -12 42 -8
121 -18 176 -21 122 -7 125 -3 74 104 -41 87 -170 285 -209 321 -14 14 -26 28
-26 32 0 4 37 20 83 35 45 15 99 35 120 46 47 23 46 25 -67 104 l-83 58 39 95
c22 53 42 99 44 103 3 4 43 -34 89 -85 46 -50 109 -112 139 -137z m-5458 -35
c24 -104 43 -197 43 -206 1 -12 -17 -21 -61 -34 -89 -25 -262 -55 -269 -47 -4
4 -21 72 -38 152 -17 80 -34 155 -37 167 -4 15 3 31 28 58 28 30 51 41 143 69
61 19 119 33 129 33 17 -2 25 -28 62 -192z m6184 161 c107 -33 149 -56 171
-99 7 -13 0 -64 -27 -180 -20 -89 -40 -165 -43 -169 -15 -17 -331 55 -331 76
0 6 20 99 45 206 25 107 45 196 45 197 0 8 38 0 140 -31z m-6750 -72 c69 -15
129 -31 135 -36 9 -8 -290 -318 -306 -318 -4 0 -6 28 -5 63 2 34 3 122 4 196
2 133 2 133 25 128 12 -3 78 -18 147 -33z m7302 -156 c2 -106 2 -195 0 -198
-1 -2 -73 66 -159 153 -87 86 -154 159 -150 163 6 6 264 70 294 73 9 1 13 -50
15 -191z m-7510 -70 l-3 -183 -157 -158 -157 -157 -7 47 c-3 27 -7 114 -7 194
l-1 146 160 147 c88 80 164 146 168 146 4 0 6 -82 4 -182z m7704 52 c65 -58
130 -118 146 -134 l28 -28 0 -194 c0 -107 -3 -194 -7 -194 -5 -1 -79 73 -165
162 l-158 163 0 178 c0 209 -19 203 156 47z m-7287 -45 c19 -86 30 -159 27
-163 -11 -10 -283 -14 -334 -5 l-42 8 151 158 c83 86 154 157 158 157 4 0 22
-70 40 -155z m1270 78 c23 -43 41 -81 41 -85 0 -17 -70 -5 -148 25 -83 33 -83
33 -63 51 27 24 114 85 123 85 4 1 25 -34 47 -76z m4292 30 c38 -27 69 -51 69
-54 0 -3 -42 -20 -92 -37 -87 -30 -138 -40 -138 -26 0 7 84 164 88 164 2 0 35
-21 73 -47z m1346 -115 c84 -84 153 -156 153 -160 0 -10 -289 -10 -343 -1 -45
7 -45 -9 -1 186 15 70 30 127 33 127 3 0 74 -69 158 -152z m-6079 -16 c22
-196 91 -436 203 -702 61 -144 208 -438 262 -522 32 -51 41 -58 69 -58 46 0
175 32 325 81 378 123 643 254 898 443 55 41 103 71 107 68 4 -4 15 -46 25
-94 l17 -88 -34 -35 c-53 -55 -172 -130 -315 -200 -125 -60 -249 -111 -690
-281 -230 -89 -334 -136 -423 -193 -34 -23 -65 -41 -67 -41 -3 0 -5 8 -5 18 0
36 -38 168 -78 267 -21 55 -94 223 -161 374 -222 499 -296 710 -316 906 l-6
60 78 52 c43 28 83 52 88 52 7 1 16 -45 23 -107z m5164 56 c43 -29 78 -57 78
-63 0 -25 -60 -298 -79 -361 -41 -132 -105 -290 -244 -604 -167 -377 -200
-460 -222 -565 -10 -44 -19 -81 -20 -83 -2 -2 -30 15 -63 37 -88 60 -192 106
-527 231 -329 122 -652 273 -810 377 -135 89 -132 85 -110 191 10 48 21 91 26
96 4 5 31 -12 61 -39 171 -153 565 -349 968 -480 187 -61 309 -88 328 -73 20
17 105 165 178 309 175 350 289 680 324 934 16 123 20 145 27 145 4 0 42 -24
85 -52z m-440 -272 c60 -91 128 -216 128 -237 0 -21 -280 13 -327 40 -10 5
-31 51 -49 103 l-31 94 55 104 56 104 54 -60 c30 -32 81 -99 114 -148z m-4212
186 c0 -4 23 -47 50 -96 l51 -88 -31 -93 c-17 -52 -37 -98 -44 -105 -18 -14
-140 -37 -250 -45 l-88 -8 7 24 c32 103 251 419 291 419 8 0 14 -4 14 -8z
m-772 -19 c-2 -5 -16 -33 -32 -63 -38 -69 -41 -147 -10 -201 l21 -35 -31 -45
c-69 -101 -47 -90 -227 -106 -89 -7 -164 -11 -167 -8 -5 5 4 18 202 270 97
123 126 154 165 172 46 22 86 30 79 16z m2460 -9 c-3 -16 -281 -214 -300 -214
-5 0 -8 12 -6 27 3 23 20 36 118 91 63 35 129 74 145 87 36 29 48 31 43 9z
m725 -26 c34 -24 100 -63 147 -88 73 -39 85 -49 88 -74 3 -22 0 -27 -11 -23
-38 14 -297 200 -297 213 0 20 4 19 73 -28z m2462 22 c22 -10 47 -25 56 -32
21 -17 319 -401 319 -410 0 -10 -33 -10 -165 2 -175 16 -165 12 -213 85 -42
63 -42 65 -27 95 36 70 29 155 -21 232 -13 21 -24 40 -24 43 0 11 37 4 75 -15z
m-5565 -137 c17 -79 29 -147 25 -153 -11 -17 -50 -11 -86 13 -60 40 -71 124
-27 212 19 38 49 78 53 73 2 -2 17 -67 35 -145z m5482 108 c56 -79 60 -180 9
-232 -25 -25 -95 -49 -107 -37 -6 7 57 308 65 308 3 0 18 -18 33 -39z m-5759
-34 c-19 -31 -252 -325 -284 -359 l-36 -38 -166 0 c-92 0 -167 3 -167 8 0 9
143 176 228 266 l65 69 136 23 c75 13 150 28 166 33 45 14 67 13 58 -2z m6097
-16 c52 -10 125 -22 161 -26 l67 -6 67 -75 c128 -143 225 -257 225 -265 0 -5
-76 -9 -170 -9 l-170 0 -113 143 c-138 173 -197 251 -197 261 0 4 8 5 18 2 9
-3 60 -14 112 -25z m-3437 -83 c6 -93 20 -195 33 -239 3 -12 -32 -40 -133
-106 -76 -50 -152 -97 -169 -106 -31 -16 -32 -16 -38 6 -3 12 -8 87 -12 167
-4 110 -2 151 8 169 13 23 272 208 294 210 7 1 13 -37 17 -101z m698 83 c13
-10 71 -50 129 -88 154 -103 143 -81 134 -282 -4 -95 -10 -173 -13 -175 -3 -2
-78 42 -166 98 l-160 102 1 39 c0 22 6 69 12 105 7 36 12 100 12 143 0 84 7
93 51 58z m-3771 -39 c0 -10 -149 -183 -224 -259 l-80 -83 -177 0 c-119 0
-180 4 -185 11 -4 6 61 78 154 170 l160 158 153 3 c205 4 199 4 199 0z m7161
-15 c33 -24 302 -307 296 -313 -2 -3 -89 -6 -192 -6 l-186 -2 -42 49 c-23 27
-88 101 -144 164 -56 64 -99 120 -96 125 10 16 339 0 364 -17z m-5596 -195
c86 -184 86 -201 1 -407 -36 -88 -74 -178 -85 -200 l-19 -40 -10 40 c-40 143
-45 377 -13 530 25 120 49 205 59 205 4 0 34 -57 67 -128z m3745 88 c49 -96
76 -335 59 -525 -10 -116 -28 -197 -42 -196 -15 1 -160 364 -164 413 -3 29 2
68 12 100 16 50 105 248 112 248 1 0 12 -18 23 -40z m-2806 -117 c9 -47 14
-88 13 -90 -2 -2 -48 18 -101 43 -87 41 -118 65 -104 80 5 4 151 50 169 53 4
1 14 -38 23 -86z m1907 56 c53 -16 69 -25 67 -38 -3 -15 -193 -119 -202 -110
-5 4 20 143 29 168 3 7 12 10 20 7 9 -3 47 -15 86 -27z m-3751 -20 c27 -6 50
-15 50 -20 0 -27 -49 -57 -104 -63 -32 -4 -59 -6 -62 -4 -3 4 57 98 63 98 1 0
25 -5 53 -11z m5558 -36 c17 -26 29 -49 27 -51 -2 -3 -29 -1 -60 3 -91 11
-128 64 -57 83 57 15 58 15 90 -35z m-1541 -22 l53 -13 46 -94 c30 -62 43
-100 39 -114 -15 -47 -183 -260 -206 -260 -10 0 -59 170 -74 256 -17 102 -29
249 -21 263 4 6 25 4 59 -8 28 -10 76 -24 104 -30z m-2397 -13 c0 -113 -62
-419 -92 -455 -14 -18 -24 -9 -105 95 -82 107 -103 141 -103 170 0 12 16 59
36 103 l37 79 71 21 c39 11 82 24 96 29 54 18 60 14 60 -42z m-1483 -110 l51
-143 -41 -3 c-79 -6 -132 62 -124 160 5 53 37 128 56 128 4 0 30 -64 58 -142z
m5290 96 c40 -69 26 -171 -29 -222 -20 -19 -35 -23 -71 -20 l-45 3 51 143 c28
78 56 141 61 139 6 -2 21 -21 33 -43z m-4077 -16 c0 -22 -69 -149 -118 -218
-91 -129 -240 -263 -360 -324 -33 -17 -34 -17 -27 3 13 43 155 375 169 395 18
29 111 78 228 121 107 39 108 39 108 23z m2945 -49 c90 -38 161 -86 179 -124
34 -67 157 -377 152 -382 -8 -9 -89 43 -172 109 -124 100 -308 340 -330 430
l-6 28 53 -16 c30 -9 85 -29 124 -45z m-1782 -139 c31 -82 57 -154 57 -159 0
-15 -69 -66 -191 -139 -176 -106 -156 -102 -185 -36 -35 80 -79 254 -68 272 8
11 310 209 324 211 3 1 31 -66 63 -149z m676 45 l169 -105 -15 -67 c-13 -58
-78 -250 -89 -262 -4 -5 -161 89 -269 161 -58 39 -80 58 -79 73 2 18 106 304
111 305 2 0 79 -47 172 -105z m-3029 -129 c0 -2 -9 -23 -20 -47 -28 -62 -26
-144 3 -199 25 -48 90 -90 138 -90 l28 0 -20 -67 c-24 -87 -24 -107 5 -169 27
-58 62 -90 118 -105 39 -10 39 -11 24 -32 -38 -52 -56 -103 -56 -165 0 -77 18
-122 66 -166 34 -31 36 -37 28 -64 -18 -56 -199 -492 -205 -492 -3 0 -14 30
-24 68 -39 146 -95 267 -243 522 -189 326 -234 451 -236 650 -1 127 20 258 47
293 17 23 347 83 347 63z m119 -149 c34 -76 59 -142 56 -147 -9 -15 -83 -12
-115 5 -71 37 -93 175 -41 259 13 20 27 34 31 29 4 -4 35 -70 69 -146z m5029
84 c15 -48 15 -136 1 -162 -13 -26 -42 -55 -68 -68 -25 -14 -98 -14 -106 -1
-3 5 24 75 61 155 62 135 68 145 84 130 9 -8 22 -33 28 -54z m179 33 c81 -14
156 -27 165 -30 12 -4 23 -32 39 -100 18 -80 21 -114 16 -213 -8 -194 -58
-320 -284 -719 -122 -215 -172 -323 -192 -412 -19 -85 -22 -93 -31 -84 -5 5
-54 123 -111 262 l-102 253 35 32 c89 82 100 197 28 310 -27 42 -28 48 -12 53
49 14 109 53 129 83 39 57 40 115 7 239 -5 19 -2 22 20 22 37 0 101 34 124 67
36 50 45 106 28 171 -8 31 -18 65 -21 75 -9 22 -14 22 162 -9z m-2833 -192
c72 -130 84 -196 45 -232 -38 -34 -256 -170 -274 -170 -9 0 -46 47 -90 115
-87 133 -102 162 -89 175 12 11 337 219 344 219 3 0 32 -48 64 -107z m407 -3
l179 -112 -36 -66 c-50 -92 -142 -221 -158 -221 -8 0 -55 27 -104 59 -50 33
-105 67 -122 76 -91 47 -93 87 -8 253 35 67 64 122 66 122 2 0 84 -50 183
-111z m-965 0 c-18 -113 -107 -196 -189 -175 -23 5 -67 41 -67 54 0 4 39 32
88 62 48 30 102 65 121 77 48 32 55 30 47 -18z m1424 -44 c58 -36 105 -70 104
-76 -1 -5 -2 -13 -2 -19 -1 -5 -15 -16 -32 -25 -89 -46 -185 23 -209 150 -13
69 -19 71 139 -30z m-1344 -12 c16 -42 16 -55 -11 -306 -16 -144 -30 -264 -32
-266 -6 -8 -47 35 -135 144 -74 91 -88 114 -84 135 4 14 9 49 13 78 4 36 11
56 22 59 97 32 147 86 172 185 12 44 15 47 26 32 7 -9 20 -37 29 -61z m1183
12 c21 -85 75 -144 149 -164 23 -6 28 -15 38 -72 7 -35 13 -72 13 -81 1 -16
-153 -213 -197 -252 -21 -18 -21 -18 -26 5 -3 13 -17 130 -32 259 -27 247 -26
268 13 344 18 34 25 27 42 -39z m-2930 -206 c34 -78 61 -149 59 -158 -5 -25
-48 -24 -97 1 -59 30 -86 82 -84 159 1 54 33 139 52 139 5 0 36 -64 70 -141z
m4710 110 c11 -17 22 -57 26 -89 7 -63 -9 -116 -47 -157 -37 -39 -138 -54
-138 -21 0 20 123 298 132 298 4 0 17 -14 27 -31z m-3382 -102 c-30 -66 -73
-99 -137 -105 -42 -4 -51 -1 -84 28 -20 18 -33 37 -29 41 5 5 67 36 138 69
120 55 130 58 133 40 2 -11 -8 -44 -21 -73z m2111 12 c93 -43 102 -50 93 -67
-59 -110 -249 -33 -268 107 l-6 41 39 -16 c22 -9 85 -38 142 -65z m-2005 46
c28 -20 37 -33 37 -54 0 -40 -11 -91 -20 -91 -4 0 -23 25 -43 55 -29 43 -35
60 -31 85 4 16 9 30 13 30 3 0 23 -11 44 -25z m1802 -6 c6 -26 1 -40 -31 -85
-21 -31 -41 -51 -46 -46 -5 5 -11 31 -14 58 -6 49 -6 50 32 76 22 15 42 27 46
27 3 1 9 -13 13 -30z m-1419 -11 c27 -52 113 -177 152 -220 25 -28 36 -49 36
-71 0 -76 -18 -394 -23 -415 -6 -21 -18 -11 -130 102 l-124 126 6 42 c3 24 16
139 29 256 13 116 26 212 30 212 4 0 15 -15 24 -32z m1038 -218 c15 -138 23
-256 19 -264 -13 -23 -234 -248 -239 -243 -6 6 -24 286 -24 379 l0 78 69 91
c38 50 83 118 101 150 17 32 35 59 39 59 4 0 20 -113 35 -250z m-570 -289 c-9
-8 -265 261 -261 274 2 5 62 47 133 93 l129 83 3 -222 c1 -122 0 -225 -4 -228z
m183 360 l135 -88 -132 -137 c-73 -75 -136 -136 -141 -136 -5 0 -9 101 -9 225
0 124 3 225 6 225 3 0 66 -40 141 -89z m816 50 c30 -45 97 -81 151 -81 l38 0
-23 -37 c-98 -162 -280 -372 -656 -755 -301 -307 -391 -404 -448 -485 -17 -24
-35 -43 -40 -43 -6 0 -19 13 -28 30 -10 16 -161 176 -335 356 -389 401 -510
529 -621 662 -90 108 -190 249 -191 269 0 7 13 9 39 6 51 -7 122 26 157 73 15
19 30 34 34 34 5 0 34 -36 65 -81 31 -44 102 -135 158 -202 121 -145 704 -737
726 -737 18 -1 457 442 625 630 133 148 172 196 255 313 35 48 64 87 66 87 1
0 14 -17 28 -39z m-2258 -33 c-29 -133 -148 -206 -242 -148 -36 21 -59 58 -46
71 10 10 263 108 281 109 10 0 12 -9 7 -32z m2712 -20 c156 -58 163 -65 114
-112 -66 -63 -181 -35 -236 57 -27 46 -43 107 -29 107 5 0 73 -23 151 -52z
m-162 -35 c32 -71 58 -100 110 -124 67 -31 147 -20 184 25 20 24 29 20 46 -21
39 -93 112 -146 200 -147 35 0 62 7 87 22 l35 22 12 -59 c9 -44 22 -72 53
-109 48 -59 95 -82 172 -82 34 0 56 -5 59 -12 3 -7 50 -124 106 -260 56 -136
101 -249 101 -251 0 -3 -53 22 -117 54 -143 70 -277 117 -483 170 -433 112
-619 224 -754 456 -39 66 -44 79 -33 98 14 24 190 275 193 275 1 0 14 -26 29
-57z m-2405 -107 l92 -138 -19 -41 c-10 -23 -38 -69 -62 -102 -142 -196 -279
-268 -746 -395 -275 -75 -401 -121 -502 -186 -30 -19 -57 -33 -59 -31 -2 2 44
121 103 265 l106 262 57 0 c110 0 196 73 221 187 7 32 14 60 15 62 2 2 18 -7
35 -20 88 -63 250 8 289 125 6 20 14 36 16 36 3 0 21 -12 40 -27 25 -18 51
-28 87 -31 46 -3 58 0 101 30 36 24 59 51 84 96 19 35 38 60 42 55 4 -4 49
-70 100 -147z m-486 37 c-26 -110 -125 -186 -219 -169 -35 7 -85 47 -85 69 0
20 238 125 288 126 19 1 22 -3 16 -26z m3369 -12 c56 -21 122 -48 145 -60 41
-21 42 -22 26 -45 -14 -23 -79 -56 -107 -56 -6 0 -29 5 -49 10 -68 19 -121 79
-139 158 -9 42 -4 41 124 -7z m-3944 -110 c10 -56 21 -105 25 -108 3 -3 23 6
43 21 92 67 142 97 152 91 18 -10 12 -76 -10 -125 -39 -86 -98 -130 -174 -130
-68 0 -121 34 -155 99 -19 37 -15 123 9 175 22 52 70 101 83 88 5 -5 17 -55
27 -111z m4480 70 c32 -44 43 -81 42 -144 0 -110 -67 -182 -168 -181 -100 2
-173 83 -189 212 -9 69 1 68 107 -8 46 -33 90 -60 97 -60 7 0 12 14 12 38 0
32 22 143 35 180 7 18 38 0 64 -37z m-2416 -136 l117 -122 0 -232 c0 -127 -3
-231 -6 -231 -14 0 -243 224 -259 254 -17 31 -17 43 -7 148 7 63 12 158 12
211 0 72 3 97 13 96 6 -1 65 -57 130 -124z m411 -52 c4 -98 9 -199 12 -224 l6
-46 -132 -129 c-72 -71 -136 -130 -141 -132 -5 -2 -9 88 -9 225 l0 228 121
128 c66 70 124 127 129 127 4 0 11 -80 14 -177z"/>
</g>
</svg>
